<?xml version="1.0" encoding="UTF-8" standalone="no"?>
<svg xmlns:rdf="http://www.w3.org/1999/02/22-rdf-syntax-ns#" xmlns="http://www.w3.org/2000/svg" height="1342" viewBox="0 0 793 1342" width="793" version="1.1" xmlns:cc="http://creativecommons.org/ns#" xmlns:dc="http://purl.org/dc/elements/1.1/">
<path d="m481.99 1335.8c-2.8029-3.4375-8.005-12.1-11.56-19.25-4.6226-9.2968-8.7386-15.803-14.449-22.839-4.39-5.4-7.98-10.4-7.98-11 0-1.6588-38.514-39.252-43.948-42.897-2.5038-1.6795-6.3524-4.7213-8.5524-6.7594-2.2-2.0382-7.15-5.3819-11-7.4304-9.8326-5.2318-23.5-14.69-23.5-16.262 0-1.6326-0.4442-1.6819 5.5 0.6104 32.731 12.623 78.119 52.2 109 95.046 4.5584 6.3245 17.67 33.556 16.984 35.275-1.4419 3.6149-5.1804 2.011-10.49-4.5zm-57.99-13.4c-8.525-3.4609-17.3-6.6039-19.5-6.9844-12.884-2.2287-19.742-15.348-13.915-26.617 2.2423-4.3361 0.82966-5.2374-8.6859-5.5418-21.676-0.6936-35.164-12.328-27.037-23.321 3.5514-4.8035 1.3264-6.6347-6.5947-5.4275-4.2548 0.6485-18.075-5.3692-21.718-9.4563-2.7825-3.1222-2.4692-8.1013 0.82293-13.076 3.106-4.6935 2.867-7.0127-0.72249-7.0127-16.384 0-26.649-13.768-19.33-25.928 2.0339-3.3795 2.0356-3.4431 0.12154-4.5-1.0678-0.5897-3.611-2.7596-5.6514-4.8221-2.0405-2.0625-4.2003-3.75-4.7997-3.75-2.6515 0-7.2076 3.3838-9.548 7.0912-1.9081 3.0227-3.0978 3.9558-4.7446 3.7215-3.9664-0.5643-3.3343-4.3391 1.2872-7.6869 2.2608-1.6378 4.9342-4.0248 5.9409-5.3045 7.3569-9.3528 19.743-13.843 18.8-6.815-0.74628 5.564 1.7638 8.5041 8.4921 9.947 10.393 2.2289 12.057 7.7084 3.4919 11.496-12.735 5.6319-9.781 11.138 9.3497 17.43 12.052 3.9634 19.031 13.841 10.732 15.19-15.029 2.443-1.3269 15.113 15.844 14.65l8.1353-0.2193 4.0737 4.5c4.8488 5.3562 5.2316 7.7039 1.4057 8.6213-16.823 4.0339-7.9226 14.431 14.003 16.357 11.278 0.9909 14.584 2.1324 19.017 6.5652 3.7464 3.7464 3.0917 7.4565-1.3158 7.4565-12.162 0-4.7075 13.862 9.3752 17.433 15.963 4.0476 33.67 14.901 33.67 20.638 0 3.1284-4.1146 2.2203-21-4.6345zm64.624-12.975c-0.32464-0.846 0.52311-5.9085 1.8839-11.25 5.2104-20.453-1.1801-40.193-8.823-27.255-5.0801 8.6-9.4961 3.2645-7.8811-9.5222 2.0659-16.357-2.009-23.973-9.3686-17.512-6.3707 5.5935-9.7957 3.5263-9.3505-5.6436 0.86743-17.868-3.718-23.949-13.049-17.304-7.5634 5.3856-11.392 4.0742-12.948-4.4354-1.9453-10.636-14.619-19.297-20.76-14.188-7.1831 5.9753-16.107 5.5025-18.823-0.9973-4.0939-9.798-10.833-14.208-17.898-11.714-5.5852 1.9719-7.9852 1.1213-11.58-4.1042-5.6477-8.2086-8.9431-9.1666-17.015-4.9462l-4.9529 2.5898-5.2787-3.0031c-2.9033-1.6517-7.8959-3.7577-11.095-4.68-6.1702-1.7789-7.7468-3.511-5.5762-6.1265 1.8854-2.2718 10.214-1.2539 16.722 2.0436 6.1138 3.0981 6.5991 3.1295 10.077 0.6529 1.4935-1.0634 3.9375-2.2403 5.4312-2.6152 4.0965-1.0281 1.8609-2.8822-7.9851-6.6222-4.6351-1.7607-10.167-4.6904-12.294-6.5105-5.4994-4.7073-12.823-6.3082-16.699-3.6505-1.573 1.0785-6.2013 3.4279-10.285 5.2208-7.1249 3.1281-11.014 5.9536-22.518 16.361-5.1442 4.6539-7.8167 5.7571-9.0627 3.7411-1.8812-3.0439 4.5984-9.1121 23.006-21.545 4.95-3.3433 9-6.6381 9-7.3218 0-3.0516-27.397-10.467-33.432-9.0486-10.306 2.4215-20.399 8.4878-24.109 14.491-4.3703 7.0713-1.2376 9.2911 4.8883 3.4637 5.1907-4.9378 18.781-13.031 21.883-13.031 5.0816 0 2.5207 3.7149-6.1867 8.9744-8.5826 5.1842-15.542 11.959-15.542 15.129 0 2.4524 20.14 27.893 36.2 45.727 5.3392 5.9292 6.4185 10.169 2.5884 10.169-2.35 0-16.708-14.06-45.82-44.87-23.464-24.833-43.088-44.289-51.709-51.267-4.2675-3.4545-11.134-9.2657-15.259-12.914-16.053-14.196-57.634-42.214-84.879-57.193-6.2586-3.4408-14.937-8.6173-19.285-11.504-4.3482-2.8861-9.8025-6.1994-12.121-7.3628-5.009-2.4-8.71-5.6-8.71-7.5 0-3.4022 16.21 0.6176 30.495 7.5623 4.403 2.1405 11.38 5.4973 15.505 7.4596s12.087 6.3993 17.693 9.8601c5.6063 3.4608 16.658 10.267 24.559 15.125 30.673 18.859 65.674 46.689 81.051 64.446 5.3268 6.1512 8.464 8.933 9.093 8.063 0.13587-0.188 1.452-2.4466 2.9246-5.0192 2.2145-3.8684 3.8145-5.2146 9.2503-7.7829 3.615-1.708 6.4276-3.5191 6.2504-4.0247-0.85477-2.4375-27.888-17.308-36.322-19.98-6.2662-1.9854-30.67-14.956-34-18.071-1.65-1.5434-7.6477-5.1198-13.328-7.9475-17.965-8.9431-27.888-16.389-34.348-25.774-1.612-2.3419-5.3688-6.0591-8.3485-8.2603-9.4506-6.9816-25.048-25.283-29.458-34.565-2.1307-4.4848-5.4204-10.576-7.3104-13.535-8.4743-13.271-9.9258-17.38-9.5505-27.039 0.23379-6.0165-0.01096-8.8434-0.76563-8.843-2.1715 0.00098-9.4846 6.6665-12.934 11.789-2.1002 3.1186-4.7981 5.7453-6.7308 6.5532-1.7741 0.74158-3.8636 2.1176-4.6434 3.0578-4.4203 5.3299-9.3901 2.0933-7.1603-4.6632 1.0157-3.0775 18.042-20.633 40.48-41.739 9.4997-8.9355 32.482-55.192 37.756-75.994 4.2339-16.697 22.658-35.722 30.095-31.078 3.9777 2.4841 12.747-4.8719 12.74-10.687-0.009-7.5412-1.7107-12.181-5.164-14.077-5.4642-3.001-8.0193-5.4191-11.537-10.919-1.9086-2.9836-9.4099-11.346-16.67-18.584-7.3354-7.3132-15.404-16.477-18.161-20.626-2.729-4.1063-7.3089-10.545-10.178-14.309-3.3059-4.3373-5.4149-8.1945-5.7597-10.534-0.671-4.58-2.044-8.48-8.505-24.15-15.21-36.88-20.889-75.63-16.268-111 2.039-15.61 2.095-14.55-0.741-14.15-17.43 2.4657-49.828-0.2812-54.136-4.5901-2.6018-2.6018-2.5104-75.308 0.11015-87.563 0.56446-2.6396 1.0459-11.64 1.0698-20 0.02395-8.3604 0.46118-17.226 0.97161-19.701 0.8943-4.3363 1.8884-14.426 4.0394-41 0.5565-6.875 1.6422-16.775 2.4127-22 0.77048-5.225 1.9103-13.325 2.533-18 1.9232-14.44 3.998-27.189 5.6144-34.5 0.85121-3.85 1.9353-9.25 2.4091-12 2.0986-12.181 9.2105-43.454 10.916-48 1.7944-4.7838 2.6578-7.6038 8.5731-28 2.7123-9.3521 3.9585-12.932 9.7485-28 17.292-45.01 46.958-78.19 77.238-86.39 3.0434-0.82449 5.1751-2.5147 8.9137-7.0673 10.494-12.779 30.026-30.282 43.937-39.372 2.67-1.745 7.23-4.746 10.15-6.671 2.9118-1.925 7.9288-5.238 11.149-7.3622 32.7-21.573 72.49-41.638 82.56-41.638 3.4328 0 5.8801-0.64335 7.8892-2.074 3.56-2.53 29.24-11.252 40.9-13.891 18.77-4.244 23.09-5.035 27.51-5.035 2.54 0 5.51-0.4761 6.6-1.058 5.23-2.8002 43.54-7.3054 64.89-7.6308 39.646-0.60418 46.746-0.51005 53 0.70266 3.575 0.69322 11.225 1.3795 17 1.5251 5.775 0.14559 13.875 0.72651 18 1.2909 4.125 0.56442 11.1 1.5027 15.5 2.0851 15.653 2.0718 48.446 12.064 62.5 19.044 15.667 7.7809 21.741 11.852 32.933 22.077 18.97 17.329 21.634 20.214 23.518 25.465 2.8256 7.8747 7.4826 19.538 9.9821 25 2.7334 5.9729 10.874 30.1 13.558 40.182 1.0516 3.9503 3.2393 9.8118 4.8616 13.026 3.9849 7.8941 12.036 28.937 17.138 44.792 2.3007 7.15 5.5225 16.825 7.1595 21.5 5.0254 14.351 15.562 45.828 19.75 59 7.1176 22.387 14.878 44.306 19.052 53.814 2.249 5.1226 5.0263 12.773 6.1718 17 1.1454 4.2274 3.1482 11.286 4.4506 15.686s3.7787 12.95 5.5028 19 4.4773 14.15 6.1181 18c12.482 29.286 12.781 46.006 1.4772 82.704-1.5767 5.1188-13.93 19.551-20.922 24.444-4.1271 2.8878-4.4815 3.8862-2.2533 6.3484 0.8232 0.90962 1.5593 2.97 1.6358 4.5787s0.97796 7.9523 2.0033 14.097c3.0213 18.106 1.8668 30.891-3.5512 39.328-18.251 28.42-24.046 55.292-16.049 74.431 0.86061 2.0597 1.4645 6.7166 1.4645 11.294 0 4.2838 0.40716 9.2084 0.90479 10.944 1.1649 4.0618-0.25786 22.047-2.3972 30.303-0.89855 3.4676-2.2758 11.755-3.0606 18.417-2.8042 23.805-3.6486 29.187-5.4307 34.612-0.99357 3.025-2.0957 7.075-2.4491 9-0.35343 1.925-1.7273 7.1-3.0529 11.5-6.1027 20.255-7.888 26.548-9.646 34-1.038 4.4-2.7258 10.475-3.7508 13.5s-2.8301 8.711-4.0114 12.636c-1.1812 3.9246-5.2884 13.332-9.1269 20.906-7.3548 14.511-8.0639 17.183-5.2292 19.707 3.7513 3.3389 17.986 5.942 22.668 4.1454 2.55-0.98 1.83-2.4-1.21-2.4-5.8397 0-7.0312-5.2813-2.1233-9.4111 7.4235-6.2465 18.975 0.42995 18.879 10.911-0.12613 13.714-26.103 25.534-46.086 20.97-9.1379-2.087-10.856-1.3925-10.891 4.4022-0.0228 3.7728-2.5836 10.339-5.8305 14.95-1.0368 1.4726-2.2122 3.7298-2.6119 5.0161-1.0046 3.2327-7.419 14.128-10.103 17.161-1.2169 1.375-3.2246 4.525-4.4616 7s-3.7925 6.9196-5.6788 9.877c-4.64 7.28-14.29 26.58-14.29 28.59 0 2.5027 16.808 19.297 30.765 30.741 6.9045 5.6609 15.704 12.993 19.556 16.293 21.301 18.253 35.827 29.802 40.91 32.526 6.1534 3.2973 11.769 7.605 11.769 9.0277 0 4.6676-10.134 1.8268-27.956-7.8363-12.914-7.002-11.92-7.0558-14.448 0.7826-1.478 4.5824-2.7603 6.7912-4.3465 7.4871-3.0616 1.3432-2.9144 2.1399 2.25 12.176 10.317 20.05 3.4857 19.255-12.929-1.5047-9.9255-12.553-52.119-43.128-63.071-45.703-1.65-0.388-4.0345-1.7784-5.2988-3.0898-3.3076-3.4308-6.1857-1.267-17.451 13.12-5.7354 7.3247-3.9644 25.888 4.2416 44.459 7.2884 16.494 7.7551 16.938 14.613 13.905 3.3259-1.4712 5.7531-1.8893 8.4574-1.4569 6.3677 1.0182 8.2957-2.473 7.6621-13.874-0.7908-14.23 1.0731-16.114 10.632-10.746 5.2622 2.955 5.5761 3.405 11.599 16.623 2.2295 4.8932 6.1066 11.3 8.6157 14.237 7.3918 8.6522 7.6995 15.257 0.7915 16.991-2.5916 0.6505-2.5688 0.6952 2.7514 5.3858 5.9185 5.2181 6.2564 9.0006 1.0364 11.603-5.7553 2.8693-5.0084 5.2296 3.6072 11.399 11.088 7.9399 11.087 11.002-0.006 20.315-5.5799 4.6845-5.75 4.9742-5.75 9.7929 0 6.4515-5.8784 13.161-15.852 18.092-5.8979 2.9165-6.9302 3.8741-9.1481 8.4872-5.4091 11.251-23.168 23.137-34.747 23.256-3.4052 0.035-5.0059 0.7294-8.0749 3.5021-7.2992 6.5943-14.889 7.4907-20.643 2.4382-7.2136-6.3336-2.685-12.566 4.6476-6.3964 6.1762 5.197 12.975 0.3295 9.6706-6.9233-2.3846-5.2338 2.3047-7.0674 9.147-3.5767 15.2 7.7542 39.659-10.351 25.592-18.944-12.451-7.6057-7.4988-12.819 7.1669-7.5453 13.958 5.0192 31.596-10.207 19.168-16.548-6.8813-3.5105-4.7607-7.9629 3.7926-7.9629 12.853 0 16.914-7.2523 7.8219-13.969-9.6349-7.1177-12.707-14.892-7.1107-17.993 1.6121-0.8933 3.089-2.0981 3.2821-2.6773 0.41159-1.2348-14.207-9.9577-18.365-10.959-9.3447-2.2494-12.549-5.8064-11.733-13.026 1.1116-9.837-7.9837-9.2995-13.196 0.7799-1.3599 2.6298-1.9916 2.9798-4.4796 2.4822-5.4583-1.0917-8.3941 2.8058-8.4189 11.177-0.0241 8.1127-1.6368 10.609-9.1276 14.13-5.1558 2.4235-5.8809 4.3906-5.1188 13.885 0.83479 10.4-4.8937 15.449-13.251 11.68-6.8441-3.0863-8.7519 1.4061-5.6096 13.209 2.8496 10.704-0.16943 15.533-10.178 16.28-8.2595 0.6167-9.8019 2.9383-6.9909 10.523 5.1782 13.972-11.734 50.477-23.386 50.477-8.9699 0-24.562-14.264-26.37-24.124-0.3656-1.9935-2.4138-5.7412-4.5515-8.3281-9.1033-11.016-3.1429-34.612 9.9436-39.364 10.011-3.6354 10.978-3.6915 13.985-0.811 2.4943 2.3897 2.9735 2.526 4.1015 1.167 0.71428-0.8607 2.8759-1.5456 4.9047-1.5542 5.9531-0.025 6.7019-1.0905 4.0297-5.7335-2.1358-3.7112-2.2054-4.3025-0.95205-8.1 1.082-3.2787 1.1237-5.4791 0.20864-11.02-1.3751-8.3263-0.31992-12.148 5.9372-21.503 4.1999-6.2794 17.637-33.217 23.26-46.628 3.0604-7.2999 3.1443-7.9069 3.1443-22.75v-15.25l-2.7821-0.0002c-8.2715-0.0006-11.085 3.2182-12.651 14.471-1.3335 9.5878-6.3903 26.545-9.5514 32.029-1.268 2.2-2.8488 6.025-3.5128 8.5-1.5328 5.7136-16.731 36.21-21.724 43.592-2.0786 3.0729-5.0262 7.8968-6.5504 10.72-3.4504 6.3907-9.7289 8.8473-9.7289 3.8067 0-0.4462-4.1009-5.2679-9.1131-10.715-14.553-15.815-21.638-28.823-25.82-47.404-3.0682-13.634-9.3879-29.926-12.897-33.247-1.8898-1.7889-4.8388-4.6773-6.5534-6.4186-2.0565-2.0886-6.0102-4.1838-11.617-6.1564-37.432-13.169-86.222-33.382-109-45.158-17.989-9.2998-25.631-13.408-32.333-17.378-4.3079-2.5527-8.0298-4.6413-8.2709-4.6413-0.24105 0-8.8664-5.25-19.167-11.667-10.301-6.4167-21.307-13.183-24.458-15.036-3.1509-1.8528-9.039-6.3903-13.085-10.083-4.0456-3.6929-13.041-11.201-19.989-16.685-15.939-12.579-42.003-40.534-47.211-50.636-1.3065-2.5341-3.5536-6.0077-4.9937-7.7192-7.62-9.07-12.45-28.26-9.86-39.17 2.143-9.012 1.6695-9.1331-4.5942-1.1755-6.9513 8.8312-8.6013 16.284-6.0844 27.483 0.51831 2.306 1.9471 9.2842 3.1751 15.507 2.1903 11.099 12.299 29.349 18.215 32.883 0.73928 0.44163 5.3929 5.303 10.341 10.803 25.117 27.917 59.326 58.479 73.326 65.508 2.475 1.2427 6.3 3.4773 8.5 4.9657 14.904 10.083 27.56 17.716 37.5 22.616 6.325 3.1182 16.9 8.9388 23.5 12.934 13.495 8.1703 26.675 14.522 36.301 17.495 11.742 3.6268 25.475 8.8207 43.199 16.338 7.1827 3.0465 14.641 5.2636 23.606 7.0175 16.303 3.1895 17.569 3.6758 20.882 8.0188 3.1099 4.0772 21.513 40.309 21.513 42.355 0 0.756 1.0809 3.7091 2.4021 6.5625 9.2654 20.012 12.564 27.568 13.179 30.188 0.38697 1.65 2.6646 6.9711 5.0614 11.825 5.0318 10.19 5.0782 10.49 2.1864 14.166-4.38 5.5683-15.157 8.1944-20.802 5.0691-1.6352-0.9053-4.23-1.188-7.6576-0.8342-3.2826 0.3388-7.8033-0.1068-12.324-1.2147-8.4446-2.0694-9.0915-1.7495-5.6322 2.7859 1.4382 1.8855 3.3427 5.5644 4.2323 8.1752l1.6174 4.747 3.6187-0.7893c14.712-3.2086 23.09 2.3151 23.113 15.238 0.009 5.2497 0.8577 6.3318 4.9647 6.3318 8.594 0 14.625 7.1719 14.327 17.037-0.22791 7.5368 0.40417 8.7473 6.0588 11.603 10.238 5.1711 13.516 17.114 9.1553 33.36-0.81194 3.025-1.4816 7.5894-1.4881 10.143-0.0128 5.0083-0.88027 5.857-5.9867 5.857-1.6074 0-3.064-0.6587-3.4015-1.5382zm44.259-64.092c4.3103-3.019 8.679-18.943 7.108-25.908-1.4935-6.622-7.2694-16.478-9.9912-17.049-1.375-0.2884-4.4245-1.3991-6.7768-2.4682-13.547-6.1576-21.547 13.431-10.935 26.775 1.2164 1.5296 3.2311 4.814 4.4772 7.2987 5.1899 10.348 11.353 14.689 16.117 11.352zm-129.07-49.306c2.0302-1.6155 4.9331-3.2403 6.4508-3.6108 6.5619-1.6019 5.2524-2.8318-8.9766-8.4314-13.762-5.4158-16.109-5.3879-10.373 0.1233 4.3683 4.1974 7.0903 9.1205 7.0903 12.824 0 2.7805 1.4632 2.5525 5.8086-0.905zm152.06-7.644c0.81218-0.7233-0.87265-3.3481-2.817-4.3887-1.8984-1.016-2.0565-0.8237-2.0565 2.502 0 3.3725 2.234 4.2373 4.8735 1.8867zm-182.19-8.6c4.48-1.62 4.1981-2.347-1.6656-4.2946-7.1512-2.3753-8.5356-1.8596-6.028 2.2455 2.2012 3.6036 2.8886 3.7866 7.6936 2.0491zm65.471-18.549c2.0081-2.0075-0.53379-3.6727-5.9237-3.8806-2.5992-0.1003-5.2884-0.2245-5.9759-0.2759-1.7532-0.1311-1.5703-3.0935 0.19098-3.0935 2.4229 0 2.6312-1.6385 0.54539-4.2902-2.5316-3.2184-2.5268-6.7531 0.0136-9.9827 3.0188-3.8378 2.5016-5.5032-3.5-11.27-3.025-2.9066-5.5-6.1538-5.5-7.216 0-2.0167-2.3387-4.5279-5.1352-5.514-2.4476-0.863-5.8648 2.0073-5.8648 4.9261 0 2.3762-0.28847 2.2274-4.4722-2.3068-4.6808-5.0727-7.249-11.026-5.5079-12.767 1.8419-1.8419 0.98057-2.5801-3.0102-2.5801-3.0891 0-5.4755-1.0168-10.567-4.5024-3.617-2.4763-8.5791-5.0067-11.027-5.623-2.4477-0.6163-4.6942-1.5152-4.9923-1.9976-0.29811-0.4823-2.2611-0.877-4.3622-0.877s-6.4404-1.1996-9.643-2.6658c-5.4356-2.4885-6.8413-2.6759-21.139-2.8177-9.2029-0.091-15.737-0.573-16.371-1.207-1.6974-1.6974 0.66096-8.5238 4.0746-11.794 5.6405-5.4039 2.3293-10.515-6.812-10.515-5.6721 0-6.9529 2.0006-4.1667 6.5087 7.3222 11.848-3.6795 17.527-37.005 19.103-12.666 0.599-29.451-2.8472-40.2-8.2536-1.4852-0.7469-4.0635-1.3581-5.7297-1.3581-2.4676 0-3.4114-0.6954-5.0898-3.75-2.9882-5.4384-6.6842-10.458-9.3873-12.75-3.0147-2.5558-3.7179-4.9777-3.7179-12.806 0-4.5827-0.53438-7.1469-1.9309-9.2654-3.4567-5.2436-2.6965-13.424 2.0053-21.579 4.2713-7.4084 4.211-7.855-0.65901-4.8856-4.7857 2.918-9.1889 13.963-9.2828 23.286-0.004 0.4125-0.90755 0.75-2.0076 0.75-3.1563 0-1.7381 4.5073 3.6482 11.594 1.2935 1.7019 2.3518 3.5261 2.3518 4.0538s1.5665 2.4778 3.4812 4.3335c1.9146 1.8558 3.9938 4.9816 4.6205 6.9462 0.62662 1.9647 2.4948 6.154 4.1516 9.3097 2.4334 4.6349 2.778 6.0199 1.7934 7.2062-2.0273 2.4427-0.22632 3.5559 5.7624 3.5618 11.279 0.011 19.075 3.9612 20.4 10.336 1.802 8.6731 14.869 19.708 18.957 16.009 3.5617-3.2233 1.0556-6.6635-5.5959-7.6818-5.072-0.7764-7.0258-2.7135-6.1713-6.1182 0.98895-3.9403 4.6336-5.2014 8.7606-3.0314 5.842 3.0718 26.194 5.8675 37.085 5.0942 7.6906-0.546 7.7586-0.5295 9.9419 2.4236 1.2091 1.6354 5.2776 5.2632 9.0412 8.0618 9.905 7.3655 11.512 5.902 7.6247-6.9428-1.9406-6.412-0.45439-7.156 14.294-7.156h11.763l5.606 5.3866c8.5721 8.2365 9.0884 18.99 1.009 21.018-2.8976 0.7272-10.916 10.131-10.209 11.973 3.7852 9.864 25.193 2.5748 22.719-7.7358-1.1105-4.629-1.0585-5.6944 0.41741-8.5485 1.3462-2.6031 1.4706-3.8784 0.61724-6.3263-2.7964-8.0217-0.46724-11.413 5.3636-7.8092 6.6242 4.094 10.213 10.412 11.997 21.118 1.0375 6.2268 2.645 7.5835 6.3748 5.3802 3.9635-2.3413 6.0798-0.7479 10.161 7.6501 1.4984 3.0836 4.3997 7.8007 6.4474 10.482 3.0692 4.0197 3.6192 5.4294 3.1317 8.0279-1.1718 6.2463 21.371 11.866 26.606 6.6331zm-21.55-15.468c-1.6427-2.5182-3.9641-11.75-3.1575-12.557 0.7919-0.7919 3.538 1.8356 5.1241 4.9027 2.8777 5.5649 1.1237 12.392-1.9666 7.6544zm160.39 9.9681c-0.009-5.0831-4.026-14.418-6.9934-16.252-1.3852-0.8561-0.18237 7.082 1.6132 10.647 0.73278 1.4548 1.6277 4.4923 1.9887 6.75 0.9986 6.2449 3.4032 5.433 3.3914-1.145zm-178.2-1.5c-0.20719-0.4125-1.3698-2.925-2.5835-5.5833-2.2427-4.9119-4.444-5.7806-5.0079-1.9763-0.35053 2.3647 4.281 8.3096 6.4737 8.3096 0.82194 0 1.3249-0.3375 1.1177-0.75zm-161.19-4.3979c1.0478-1.1813 5.1387-4.5527 9.0911-7.4921 8.0496-5.9864 9.2756-7.36 6.5692-7.36-5.1142 0-23.393 13.351-21.802 15.924 1.0851 1.7558 4.1006 1.2295 6.1418-1.0721zm270.55-7.4304c0.37072-1.607 1.1089-5.1717 1.6405-7.9217 0.53152-2.75 2.3636-8.825 4.0712-13.5s3.1136-9.4757 3.1245-10.668c0.0538-5.9147-3.2038-7.1588-5.4514-2.0818-1.4338 3.2386-9.2844 23.894-10.169 26.754-0.65306 2.1125 3.5371 11.196 4.9477 10.726 0.63917-0.2131 1.4654-1.7021 1.8362-3.309zm-185.9-17c6.6735-6.1434 6.4385-7.987-0.64099-5.029-3.3275 1.3903-3.8949 1.3692-6.7035-0.25-10.755-6.2003-11.954-6.2678-8.7234-0.4909 5.599 10.011 9.816 11.525 16.068 5.7699zm331.98-0.3313c-1.6388-1.5308-4.6252-5.3558-6.6365-8.5-4.6884-7.3291-6.5954-7.2589-6.5954 0.2427 0 3.3039 1.3901 4.5951 8.8897 8.2567 7.1223 3.4774 8.0642 3.4776 4.3422 0.0006zm-158.47-3.4c0.55003-0.6875 1.3316-2.375 1.7368-3.75 0.40523-1.375 2.7197-7.1786 5.1432-12.897 7.4184-17.504 3.5366-19.457-6.3237-3.1819-6.7733 11.18-7.0822 12.298-4.8626 17.611 1.5344 3.6723 2.6733 4.2589 4.3062 2.2179zm-88.76-20.3c0-3.4773-1.8045-4.0323-4.593-1.4126l-2.445 2.2969 2.769 1.1687c3.401 1.4355 4.269 1.0181 4.269-2.053zm81.811-6.75c7.6824-11.23 8.4447-17.202 1.4439-11.311-5.5043 4.6316-8.7074 10.274-7.4274 13.083 1.5684 3.4422 2.6325 3.1272 5.9836-1.7713zm-9.56-16.2c3.2688-5.1744 3.4447-7.2012 0.75-8.6434-4.3125-2.308-10.46 5.501-8.2126 10.433 1.7245 3.7849 4.3369 3.1585 7.4626-1.7893zm-218.25-3.6c1.3006-0.8388 1.2008-1.4946-0.75-4.9328-5.6143-9.8946 10.049-22.774 18.285-15.036 1.9154 1.7994 2.3095 1.8584 3.4263 0.5127 5.1715-6.2312-14.523-12.464-21.177-6.7016-6.3716 5.5175-14.033 10.156-16.775 10.156-9.2577 0-3.9184 8.4104 9.2234 14.529 6.0213 2.8033 5.7762 2.7568 7.7663 1.4732zm426.49-7.9775c0.82409-3.752 0.0429-5.0244-3.085-5.0244-3.2261 0-3.9836 2.1944-1.8706 5.4192 2.2394 3.4177 4.1517 3.2653 4.9556-0.3948zm-222.69 0.8c2.9802-2.9802 1.5059-5.2768-4.0576-6.3205-4.4936-0.843-5.163 1.3795-1.5681 5.206 2.4374 2.5945 3.8632 2.877 5.6257 1.1145zm-181.83-3.55c-0.0673-1.5164-3.833-5.25-5.2952-5.25-4.4385 0-6.2194 2.9991-2.9215 4.9199 2.0336 1.1845 8.2657 1.4349 8.2167 0.3301zm-97.903-8.9178c1.0588-2.785-4.5888-10.332-7.7316-10.332-3.8301 0-4.2314 7.0853-0.59246 10.46 3.6476 3.3822 7.0092 3.3308 8.324-0.1273zm322-2.7678c6.362-0.2593 14.912-1.1354 19-1.9469 4.088-0.8114 9.4578-1.7585 11.933-2.1045 57.442-8.0311 72.448-19.652 83.951-65.013 0.5579-2.2 2.8161-6.925 5.0183-10.5 2.2021-3.575 5.4046-9.425 7.1167-13 1.712-3.575 4.772-8.75 6.7998-11.5 5.6668-7.6848 9.14-13.643 17.976-30.836 10.692-20.805 10.919-24.501 0.85248-13.914-4.9854 5.2433-7.7746 8.5938-17.477 20.994-6.9634 8.8997-18.69 27.082-21.77 33.756-1.7771 3.85-4.5782 8.6789-6.2246 10.731-2.9337 3.6564-2.9834 3.9085-2.4865 12.623 0.45665 8.0089 0.25503 9.4425-2.0298 14.433-4.8085 10.503-9.6706 9.9316-9.6785-1.1379-0.003-3.6571-0.44373-8.2243-0.9803-10.149-0.53657-1.925-1.503-5.525-2.1476-8-2.0007-7.6815-4.2597-12.303-8.6697-17.736-6.7887-8.3634-3.9378-17.017 3.3505-10.17 3.0662 2.8806 5.6861 1.812 9.5892-3.9111 1.7567-2.5758 3.5714-4.8379 4.0327-5.0268 0.46131-0.18894 1.9362-2.4389 3.2775-5 2.2876-4.3678 6.7749-9.9576 25.75-32.076 7.8587-9.1606 9.2869-12.56 6.3139-15.027-1.9546-1.6222-5.0869 0.12381-7.057 3.9337-7.1634 13.853-43.594 49.26-47.088 45.765-1.5451-1.5451 1.8449-5.6803 17.786-21.696 19.027-19.117 18.948-18.948 10.507-22.464-6.9031-2.8755-9.7052-0.80671-9.7266 7.181-0.0185 6.8979-0.33663 7.4586-6.5424 11.529-3.4543 2.2658-5.152 4.1671-5.8252 6.5238-0.55813 1.954-2.4284 4.421-4.5336 5.9803-14.936 11.063-19.959 16.739-21.518 24.317-0.83455 4.0564-4.9282 5.2993-12.529 3.8039-6.5434-1.2873-15.231-0.3922-25.036 2.5796-17.573 5.3261-26.862 1.9644-16.471-5.9611 17.557-13.391 17.434-20.961-0.14647-9.0305-4.573 3.1034-5.7381 2.8122-6.3823-1.5948l-0.5-3.4205-6.1919-0.0424c-9.3588-0.0641-11.963-3.2385-9.1163-11.111 1.8077-4.9992 0.35353-5.1244-6.1606-0.5305-9.8155 6.9221-12.032 4.3405-3.9007-4.5433 4.4507-4.8626 4.3386-4.4646 2.3439-8.322-1.9122-3.6978-3.1928-3.6959-8.0743 0.0123-2.145 1.6294-5.8181 4.4139-8.1624 6.1877-4.6784 3.5399-7.4695 3.02-5.3226-0.99153 1.2303-2.2988 16.376-14.66 25.585-20.882 6.6756-4.5101 11.191-8.9188 10.175-9.9348-1.1012-1.1012-16.66 3.508-19.975 5.9174-1.6956 1.2325-6.7471 4.491-11.225 7.241-4.4783 2.75-10.949 6.8882-14.38 9.1961-8.0875 5.4402-12.769 7.0583-14.734 5.0929-2.3693-2.3693-0.74943-4.0164 9.9344-10.101 22.86-13.02 24.839-14.842 20.253-18.648-2.2227-1.8446-4.355-0.71336-17.18 9.1148-15.724 12.05-25.439 16.43-27.061 12.202-0.79441-2.0702 7.343-9.375 16.046-14.404 3.3759-1.9508 6.2856-4.3133 6.466-5.25 0.57987-3.011-3.7684-1.9414-11.371 2.7969-9.7865 6.0996-19.52 4.5034-21.47-3.521-0.53894-2.2174-1.0707-2.458-5.0401-2.28-22.01 1.06-43.94-14.8-43.94-31.7 0-2.6036 5.8307-8.9608 9.7023-10.578 9.8691-4.1236 15.56 2.0325 8.7977 9.5173-4.1457 4.5888-4.3463 6.3208-1.0336 8.9266 8.7138 6.8543 27.37 1.7958 60.018-16.274 4.3914-2.4305 11.141-5.3078 15-6.3941 3.8586-1.0863 12.026-4.2449 18.149-7.0192 25.147-11.393 41.57-15.795 67.866-18.191 6.6-0.60147 12.198-1.2895 12.44-1.529 1.4178-1.4016-3.6693-3.8331-9.4841-4.5331-15.171-1.8264-21.469-11.301-12.133-18.253 4.6236-3.4426 19.887-3.0409 29.177 0.76787 11.98 4.9116 14.415 6.5178 19.173 12.644 9.2755 11.944 24.648 11.307 44.327-1.8371 19.793-13.22 21.537-16.463 19.036-35.386-0.52993-4.01-1.6564-13.591-2.5034-21.291-3.2728-29.756-3.8618-33.403-7.5088-46.5-7.9274-28.468-11.025-40.69-11.035-43.542-0.006-1.6266-0.68096-5.1666-1.5-7.8665-1.6774-5.5294-1.9846-20.488-0.55236-26.898 0.51526-2.306 1.716-8.1561 2.6683-13 2.3856-12.134 6.586-19.002 17.18-28.087 29.441-25.25 35.181-28.972 43.465-28.183 5.3084 0.50521 5.75 0.38976 5.75-1.5032 0-4.2805 1.7701-5.6692 9.229-7.2405 12.508-2.6349 14.727-2.8369 30.38-2.765 19.19 0.0882 22.207-1.4084 20.866-10.351-0.93792-6.2523-0.93142-9.8523 0.0275-15.248 0.59471-3.3465 0.36828-4.6635-1.1292-6.5682-1.9575-2.4898-2.2019-12.063-0.77489-30.345 0.48254-6.1821 0.2108-7.9149-2.1035-13.413-2.2608-5.3715-2.4741-6.6572-1.4282-8.6114 1.0984-2.0524 0.89407-2.6104-1.9185-5.2377-2.27-2.1-3.17-3.84-3.17-6.11 0-2.3189-0.8769-3.9614-3.25-6.0877-3.7403-3.3513-7.0774-6.6311-13.033-12.809-5.2904-5.4881-9.4582-8.1167-12.877-8.1215-1.7569-0.002-5.0311-1.9549-9.6487-5.7537-8.0441-6.6177-19.885-13.35-25.681-14.601-2.1938-0.47353-5.4646-2.1567-7.2683-3.7404s-4.2838-3.0814-5.5112-3.3283c-1.2274-0.24684-7.1817-1.6892-13.232-3.2053-6.05-1.5161-13.7-2.8123-17-2.8804s-7.575-0.61953-9.5-1.2253c-5.819-1.8311-21.993-2.4758-29.574-1.1788-3.8096 0.65179-7.8265 1.1412-8.9265 1.0877-1.1-0.0536-9.2-0.0582-18-0.0104-18.658 0.10147-20.422 0.099-35-0.0483-13.522-0.13662-30.01 1.4436-35.585 3.4105-2.2918 0.80858-5.3721 1.4702-6.8451 1.4702-2.4456 0-14.942 2.8265-41.57 9.4027-5.5 1.3583-12.7 2.9784-16 3.6003-3.3 0.62189-9.6 2.1986-14 3.5039-4.4 1.3052-12.5 3.5585-18 5.0072-13.879 3.6557-15.245 4.1406-18.182 6.4503-1.5408 1.212-4.0806 2.0357-6.277 2.0357-2.5918 0-5.1129 1.0122-8.4755 3.403-2.9072 2.0669-6.5988 3.6748-9.4026 4.0952-2.5389 0.38073-6.2017 1.483-8.1396 2.4494-1.9379 0.96644-5.7537 2.3034-8.4795 2.971-2.7258 0.66763-7.7306 2.7655-11.122 4.662-3.3912 1.8965-9.936 4.5746-14.544 5.9514s-10.937 4.0802-14.064 6.0074c-3.1273 1.9272-7.6126 4.1838-9.9672 5.0146-2.3547 0.83078-6.096 2.5635-8.314 3.8506-2.218 1.287-5.1578 2.6697-6.5328 3.0727-6.0515 1.7734-17.266 9.9853-24.938 18.262-7.2884 7.862-10.299 12.583-4.8079 7.5391 4.7507-4.3636 24.493-16.393 29.52-17.986 9.4657-3.0011 11.048 1.6153 2.3635 6.896-4.4681 2.7169-16.131 11.89-18.03 14.181-2.7445 3.3107-0.21647 2.6545 7.2595-1.8842 17.387-10.556 22.203-7.0317 7.26 5.3128-9.4811 7.8322-15.513 14.187-21.977 23.153-7.2456 10.05-5.8907 10.802 4.7809 2.6507 9.52-7.2712 14.043-9.8139 16.768-9.4257 3.1204 0.44454 3.4424 3.4287 0.62578 5.7997-1.2788 1.0764-4.7263 3.9575-7.6612 6.4023-6.5994 5.4974-18.257 19.981-25.787 32.038-3.1208 4.9968-7.668 12.235-10.105 16.085-2.4369 3.85-7.4396 11.937-11.117 17.97-13.317 21.85-21.573 16.984-10.399-6.129 7.2975-15.094 3.1787-11.94-9.9654 7.6329-15.933 23.725-22.118 13.795-7.3028-11.724 5.3119-9.15 2.671-7.627-3.9011 2.2497-3.1107 4.6748-6.7652 9.2266-8.1211 10.115-2.9882 1.9579-3.1003 4.2201-0.46525 9.3853 2.3537 4.6136 2.5864 9.2684 0.54799 10.96-2.5096 2.0828-5.2304 0.20567-7.5638-5.2185-10.658-24.776-47.056-41.269-65.484-29.673-1.65 1.0382-4.575 2.6743-6.5 3.6356-22.812 11.393-26.018 17.551-24.896 47.815 1.2734 34.332 3.304 47.035 11.006 68.856 2.7422 7.769 6.1424 17.725 7.556 22.125 3.1088 9.6762 8.2968 20.226 12.148 24.702 1.5606 1.8139 5.9039 7.7279 9.6519 13.142 6.9583 10.052 10.52 13.866 30.958 33.156 12.421 11.723 15.565 13.667 22.106 13.667 10.274 0 17.106-3.7822 20.755-11.49 3.466-7.3203 5.6515-8.4967 10.369-5.5813 7.0125 4.334 7.4206 9.5737 1.4246 18.289-1.6018 2.3282-3.6784 6.868-4.6147 10.088-2.5128 8.6437-9.5651 14.249-19.465 15.472l-4.5 0.5556-0.55883 18c-0.37192 11.98-1.19 20.911-2.4458 26.705-1.7721 8.1746-1.7842 8.8185-0.19934 10.57 0.92823 1.0257 2.6056 4.5329 3.7276 7.7939 5.5344 16.086 58.326 64.941 84.476 78.177 4.5794 2.3178 8.6304 4.8523 28.923 18.096 8.2562 5.3882 21.015 11.13 24.769 11.147 7.3509 0.0333 46.575 14.617 49.816 18.521 1.1404 1.3741 9.9437 5.0289 26.492 10.999 5.5 1.984 12.531 4.7064 15.625 6.0497 3.0938 1.3433 7.5274 2.4424 9.8526 2.4424 2.5203 0 6.1044 0.9753 8.875 2.4151 2.5561 1.3284 8.6974 3.7458 13.647 5.3721 4.95 1.6263 12.15 4.1911 16 5.6994 14.291 5.5991 26.324 8.322 35 7.92 4.4-0.204 13.205-0.5829 19.567-0.8422zm-281.68-168.75c-13.162-13.878-22.233-26.562-24.316-34-3.2198-11.5 1.6908-14.489 6.0392-3.6758 3.419 8.5022 5.9068 12.364 16.234 25.203 9.3285 11.596 11.053 14.273 10.144 15.744-1.2547 2.0301-4.2032 0.83973-8.1016-3.2707zm280.1-83.144c-6.6574-2.9008-11.919-12.053-9.5128-16.548 1.1639-2.1747 4.4694-2.777 5.5597-1.0129 2.697 4.3638 10.868 8.9543 15.939 8.9543 6.3375 0 8.4414 1.7101 6.7287 5.4691-1.8698 4.1039-12.433 5.8746-18.715 3.1374zm67.01-18.72c-7.85-3.16-16.57-5.89-18.81-5.89-1.1298 0-4.6558-0.73-7.8356-1.6222-5.193-1.4571-6.1667-1.4691-9.5656-0.11781-10.725 4.2637-24.688 3.06-24.094-2.0772 1.3856-11.994 54.292-7.0978 66.686 6.1714 4.7392 5.0735 1.6667 6.7783-6.3765 3.5381zm-404-14.291c-12.573-3.9762-18.863-11.856-12.373-15.499 2.367-1.3286 3.2142-1.2542 8.9929 0.78981 3.5089 1.2411 8.6954 2.5792 11.526 2.9736 5.7743 0.80461 8.354 2.4483 8.354 5.3228 0 6.3591-7.479 9.2659-16.5 6.413zm327.6-0.86592c-7.4659-3.8397 0.44795-24.406 9.0612-23.548 4.3076 0.42898 5.6704 2.8502 3.961 7.0372-0.73551 1.8015-2.1829 6.1704-3.2163 9.7087-2.3948 8.1992-4.3935 9.5856-9.8059 6.802zm-367.29-30.48c-2.4708-2.6125-8.6128-8.4929-13.649-13.068-11.13-10.11-12.6-16.18-3.92-16.18 7.4621 0 29.275 25.668 27.245 32.061-1.0785 3.3979-4.8349 2.3064-9.675-2.8113zm46.19-8.15c-18.52-5.9477-41.681-34.524-31-38.248 3.905-1.3613 3.8682-3.9387-0.10769-7.5373-1.7092-1.5471-4.9717-4.7022-7.25-7.0113-2.2783-2.3092-5.3917-4.4984-6.9187-4.865-4.7704-1.1453-5.2615-3.7156-2.2537-11.796 7.0253-18.874 13.769-23.396 25.791-17.295 18.305 9.2912 24.423 19.362 18.622 30.654-3.3983 6.615-1.4222 13.867 5.8076 21.313 9.75 10.03 10.31 11.18 10.31 21.03 0 11.746-4.4813 16.485-13 13.749zm-4.4005-17.497c0.86174-2.2457-4.4334-11.663-9.7223-17.291-2.69-2.85-4.88-5.67-4.88-6.25s-0.89-1.06-1.98-1.06c-2.8993 0-3.7052 4.3228-1.371 7.3538 1.0186 1.3226 4.05 5.2716 6.7364 8.7755 7.2536 9.4609 10.031 11.559 11.215 8.4719zm-69.01-47.85c-4.9639-7.6708-11.961-45.675-10.438-56.694 4.9307-35.675 48.227-36.755 65.922-1.643 2.2415 4.4476 5.1123 9.2116 6.3796 10.587 3.5652 3.8681 5.6279 15.736 3.0611 17.613-6.5877 4.8171-20.894-5.1636-28.83-20.113-3.5326-6.6548-3.4146-6.618-15.866-4.9403-7.48 1.01-11.82 10.95-11.82 27.05 0 5.2615-0.50677 8.4424-1.6546 10.386-1.4006 2.3711-1.4967 3.7761-0.62592 9.1543 1.1764 7.2661 0.2934 10.853-2.6717 10.853-1.1009 0-2.6569-1.0125-3.4577-2.25zm5.3427-51.102c3.8775-7.3975 3.845-8.0478-0.55169-11.035-5.6059-3.8093-6.3584-2.8629-5.743 7.2229 0.82782 13.566 1.0967 13.729 6.2947 3.8125zm381.44 24.367c-1.1686-0.47194-2.5863-2.1818-3.1503-3.7998-0.91548-2.6262-1.569-2.994-6.092-3.4286-13.015-1.2505-10.387-10.109 3.7422-12.615 19.339-3.4302 24.158-11.646 10.399-17.728-3.1757-1.4038-6.9629-3.6906-8.4161-5.0817-4.3422-4.1569-7.2198-2.9933-7.979 3.2265-0.3416 2.7986-1.4266 6.3177-2.411 7.8202-0.98444 1.5024-2.505 4.1626-3.3789 5.9116-8.8938 17.798-44.716 10.57-53.656-10.827-1.9255-4.6084-3.1693-5.0026-9.7485-3.09-10.307 2.9962-9.1323 10.754 2.1006 13.877 6.0154 1.6724 13.828 7.9182 12.531 10.017-2.0703 3.3497-20.966-2.8379-21.917-7.1768-0.3158-1.4416-0.67194-3.0325-0.79143-3.5353-0.59246-2.493-14.933-4.5033-21.479-3.011-4.7009 1.0717-7.3222 1.1882-10 0.44437-1.996-0.55443-5.0548-1.0106-6.7974-1.0136-11.358-0.02-8.9073-5.8356 4.6682-11.078 10.364-4.0018 10.836-4.3375 10.268-7.3052-1.0587-5.5383 25.566-21.384 39.732-23.646 2.475-0.39522 7.2087-1.4512 10.519-2.3466 8.0121-2.167 27.294-3.4214 35.774-2.3271 10.63 1.3717 24.174-5.9854 18.212-9.8924-2.85-1.87-11.55-4.42-15.07-4.42-1.1672 0-5.6068-0.89124-9.8659-1.9805-9.4371-2.4136-23.165-1.4394-35.234 2.5005-4.0792 1.3316-9.7624 2.7049-12.629 3.0518-6.3096 0.7634-19.724 4.683-25.213 7.3674-2.2 1.0758-5.206 2.2053-6.6801 2.51-3.6475 0.7539-5.8199 3.1495-5.8199 6.4176 0 4.9968-28.853 23.353-33.118 21.07-2.3541-1.2599-2.4034-3.1779-0.13179-5.1327 1.9887-1.7114 20.021-12.669 25.115-15.262 2.2587-1.1496 3.0339-2.0436 2.358-2.7195-0.67588-0.67588-2.2752-0.3314-4.8649 1.0478-22.215 11.832-44.359 13.84-32.608 2.9565 5.5285-5.1202 29.436-19.561 35.25-21.292 1.375-0.40942 6.1-2.666 10.5-5.0147 4.4-2.3486 9.7978-4.8478 11.995-5.5537 2.1973-0.70586 5.9768-2.3371 8.3989-3.625 2.4222-1.2879 5.2466-2.3416 6.2765-2.3416s6.0215-1.6212 11.092-3.6027c23.897-9.3379 68.279-11.754 85.237-4.6408 3.3 1.3842 9.2465 3.5851 13.214 4.8907 3.9679 1.3056 9.8179 3.8846 13 5.7311 3.1821 1.8464 7.5856 3.6801 9.7856 4.0748 5.6567 1.0148 11.254 4.4121 13.646 8.2831 1.1259 1.8218 3.3404 3.9811 4.921 4.7984 3.882 2.0075 5.2159 4.8321 4.4428 9.4081-0.76443 4.5246 0.54672 5.3917 6.6717 4.4123 3.7265-0.59589 5.7402 0.34797 5.8033 2.7202 0.15625 5.8693-28.897 31.222-42.985 37.51-4.675 2.0866-8.6457 3.8918-8.8237 4.0115-0.47825 0.32163 2.671 6.1912 3.6447 6.793 2.1892 1.353 28.971-19.109 38.413-29.348 8.5703-9.2941 12.61-5.7085 4.8708 4.3231-9.03 11.71-39.64 35.64-45.59 35.64-1.7888 0-4.3436 1.6209-7.9898 5.0694-6.6243 6.265-14.827 9.0933-20.145 6.9457zm-38-39.25c1.2699-2.0132-0.76842-4.7743-3.5244-4.7743-2.7132 0-3.4073 2.7225-1.2904 5.0616 1.9926 2.2018 3.2937 2.1242 4.8148-0.28728zm81.571-7.6896c8.5899-5.1282 12.266-9.2458 14.899-16.687 3.4047-9.6232 2.8702-9.7166-6.5645-1.1473-3.7847 3.4375-9.4494 8.05-12.588 10.25-11.793 8.2654-8.0537 14.932 4.2537 7.5847zm-133.13-6.58c3.3839-1.375 7.5636-2.5 9.2882-2.5s5.221-0.66421 7.7699-1.476c11.533-3.6732 19.205-4.7872 36.634-5.3192 15.962-0.48726 17.547-0.68335 14-1.7322-10.539-3.1162-36.016-2.4074-53 1.4746-5.36 1.22-24.43 12.05-21.23 12.05 0.21264 0 3.1553-1.125 6.5392-2.5zm117.72-3.9483c8.59-3.59 19.78-13.55 15.22-13.55-1.8874 0-15.929 7.5708-18.499 9.9737-4.4553 4.1666-2.7029 6.078 3.2804 3.578zm-5.8523-12.54c7.1093-4.0774 8.0101-6.9413 2.2005-6.9961-2.3895-0.0226-10.371 7.3786-9.4919 8.8014 1.0202 1.6508 1.4517 1.544 7.2914-1.8053zm-15.72-5.1268c3.2865-2.0035 3.3636-2.1766 1.5589-3.4963-2.7596-2.0178-5.4606-1.3598-9.7429 2.3737-4.0868 3.563 2.6622 4.4888 8.1841 1.1225zm23.04 72.71c0-2.7794 7.3035-9.8196 16-15.423 3.025-1.9491 8.5082-5.544 12.185-7.9887 6.8461-4.5521 9.8152-4.9442 9.8152-1.2962 0 2.6233-10.629 12.106-17.933 15.999-3.2192 1.7158-8.0305 4.9189-10.692 7.118-5.64 4.66-9.38 5.29-9.38 1.59zm-172.33-39.26c-3.3327-3.3327 4.9851-12.224 17.061-18.237 13.136-6.5405 18.261-3.8796 6.4025 3.324-3.2283 1.9611-9.395 6.2687-13.704 9.5724-8.0437 6.1675-8.6182 6.4818-9.7598 5.3401zm-117-5c-4.7245-4.7245 11.806-34.789 30.652-55.747 12.766-14.196 18.55-10.43 7.1015 4.6234-6.7597 8.8884-8.074 12.093-6.6145 16.13 0.65677 1.8163 1.1941 4.2473 1.1941 5.4024 0 2.8676-8.698 24.448-10.251 25.434-2.4601 1.5622-4.7229 0.774-6.2486-2.1765-2.0776-4.0177-2.7136-3.8334-6.9045 2-3.4086 4.7445-6.8483 6.4138-8.9288 4.3333zm458.91 463.57c0.92264-1.4929-3.4427-4.8121-6.3662-4.8406-2.4574-0.024-3.7856 2.0578-2.857 4.4778 0.69056 1.7996 8.1538 2.0931 9.2232 0.3628zm-17.713-3.2081c2.1212-2.5559 2.5792-7.6547 0.68764-7.6547-4.7303 0-7.6127 4.1785-4.9284 7.1446 1.9991 2.209 2.7553 2.2999 4.2407 0.5101zm-6.8822-12.142c1.6348-1.9698 0.5694-4.5127-1.8907-4.5127-2.0295 0-3.7048 3.2105-2.6043 4.9911 0.90625 1.4663 3.0723 1.2358 4.495-0.4784zm-432.92-1.5479c1.0638-0.5693 1.9343-1.6083 1.9343-2.3089 0-3.252 2.8332-5.1559 7.6724-5.1559 4.2313 0 4.8667-0.2753 5.1444-2.2287 0.53809-3.7859-3.925-7.2713-9.3111-7.2713-2.6118 0-6.2725-0.8608-8.5056-2-6.3095-3.2189-10.426 0.4709-8.0688 7.2326 0.58782 1.6862 1.0688 4.063 1.0688 5.2818 0 5.2936 5.5644 8.8595 10.066 6.4504zm-87.375-9.2148c0.44496-0.6875 1.259-2.518 1.809-4.0678 1.8832-5.3065 14.789-10.18 26.75-10.101 11.056 0.073 11.519-0.3657 7.7797-7.3834-1.0837-2.0339-2.2334-5.8164-2.5549-8.4054-0.44725-3.6018-1.2942-5.3044-3.6064-7.25-5.5864-4.7006-6.4172-2.2937-2.3684 6.8614 3.918 8.8592 2.6223 12.872-2.9725 9.2059-1.3514-0.8855-3.6695-1.61-5.1513-1.61-1.9144 0-3.89-1.3025-6.8257-4.5-7.1281-7.764-21.081-4.7639-27.886 5.9959l-2.8351 4.4828 2.118 6.3645c2.7699 8.3235 3.9378 9.7671 8.6339 10.672 5.7914 1.1158 6.226 1.0996 7.1093-0.2651zm-8.0746-11.753c-4.0975-4.5355-4.4511-6.6661-1.689-10.178 4.3044-5.4722 14.209-7.4913 12.545-2.5573-0.41512 1.2308-0.71464 3.8128-0.66559 5.7378 0.049 1.925 0.11161 4.625 0.13904 6 0.11772 5.9002-5.4169 6.4345-10.329 0.9971zm503.83 7.7804c1.8671-2.6657 2.0544-6.7878 0.3067-6.7517-1.0853 0.022-4.75 6.4274-4.75 8.3018 0 1.5516 3.0051 0.5032 4.4433-1.5501zm-10.736-5.3938c1.439-1.4389 3.9487-3.1765 5.5773-3.8613l2.961-1.245-3.7391-4.1387c-4.99-5.6-11.52-0.9-11.52 8.2 0 3.822 3.3635 4.303 6.7072 0.9593zm-517.76-28.43c1.4992-2.8014 1.2445-4.2221-1.3182-7.3532l-2.2815-2.7875-2.6825 2.1101c-3.19 2.5-3.42 5.22-0.68 7.96 2.5349 2.5349 5.6278 2.5641 6.9648 0.0657zm49.44-20.18c-2.64-2.75-5.4-3.82-5.4-2.08 0 1.1019 4.6966 7.3862 6.2455 8.3568 2.6141 1.6382 1.937-3.3626-0.84893-6.2705zm-50.591 2.6355c0.66068-1.45 2.2777-2.7152 3.9105-3.0596 4.4794-0.94472 5.7013-1.9645 6.3903-5.3333 1.7265-8.4415 7.4017-13.22 12.188-10.262 3.7921 2.3436 14.706 4.0659 14.706 2.3206 0-6.214-16.749-16.004-22.299-13.033-1.1923 0.63809-4.6393 1.6506-7.66 2.25-5.2152 1.0349-5.5705 1.3024-7.0445 5.3034-1.8645 5.0611-6.2244 9.8711-10.996 12.131-4.86 2.29-5.792 8.15-1.304 8.15 1.5559 0 4.3969 0.87417 6.3134 1.9426 4.4807 2.4981 4.462 2.4994 5.7899-0.41502zm506.11-13.38c7.9613-16.119 18.38-33.18 24.517-40.148 1.2111-1.375 2.8999-3.625 3.7529-5 0.85303-1.375 4.5676-5.7522 8.2547-9.7272 7.4454-8.0268 8.5065-11.773 3.3347-11.773-2.2384 0-3.9317 1.5531-9.5 8.7137-8.9115 11.46-29.414 34.045-33.528 36.933-1.7867 1.2545-3.3902 2.6094-3.5632 3.0108-0.17303 0.40144-1.624 2.3776-3.2244 4.3915-5.3872 6.7788-5.0921 10.045 1.7366 19.22 3.057 4.1074 3.597 3.7382 8.2195-5.6209zm-51.321-18.693c9.0821-9.3448 8.9707-11.711-0.35198-7.4791-9.2563 4.2015-13.967 9.3945-9.977 10.999 4.115 1.655 5.8861 1.0514 10.329-3.52zm-23.075 1.086c3.56-2.09 7.48-6.26 7.48-7.96 0-1.0926-7.1686 2.1328-11.428 5.1419-7.5312 5.32-4.2808 7.6344 3.9487 2.8116zm-409.52-16.93c0-0.76174-1.1487-2.1376-2.5526-3.0576-2.2944-1.5034-2.487-2.11-1.9042-5.9968 0.74383-4.9602-0.94987-7.0926-3.1949-4.0223-2.3724 3.2445-1.6936 9.0606 1.3915 11.921 2.9777 2.7611 6.2602 3.3669 6.2602 1.1555zm447.4-13.358c11.384-8.0395 3.117-19.914-9.8658-14.171-5.3508 2.3669-6.3362 2.2415-18.038-2.2957-7.8667-3.0501-16.936-4.0178-27-2.8808-1.65 0.18641-6.15-0.12216-10-0.68571-12.611-1.846-32.138 10.431-23.123 14.538 1.3073 0.59565 4.0052 2.5126 5.9953 4.26 3.2995 2.897 3.8964 3.0801 6.7723 2.0775 4.2642-1.4865 8.0086-1.3314 16.689 0.69153 6.0191 1.4027 11.575 1.6655 31 1.4661l23.667-0.24289 3.9041-2.7571zm50.014-20.864c3.5606-1.3663 1.8159-5.1469-3.1682-6.8653-2.6125-0.90075-7.3744-3.0011-10.582-4.6674-7.4284-3.8589-7.9357-3.2226-2.5361 3.181 5.9423 7.0472 11.825 10.064 16.286 8.3517zm57.916-24.21c1.87-2.07 9.67-20.23 9.67-22.51 0-0.82035 2.2644-8.1709 5.0319-16.335 2.7676-8.1637 6.8543-20.243 9.0817-26.843s5.363-15 6.9681-18.668c1.6051-3.6672 2.9183-7.4243 2.9183-8.349 0-0.92479 1.7516-6.9244 3.8925-13.332 4.569-13.676 5.6659-18.88 7.0569-33.481 0.56746-5.9567 1.2927-11.253 1.6117-11.769 1.0069-1.6292 2.885-29.916 2.782-41.901-0.096-11.169-1.7467-22.765-4.8355-33.968-0.82918-3.0074-1.5076-7.5933-1.5076-10.191 0-6.0199-0.62527-6.3255-7.9178-3.8688-3.3105 1.1152-7.5418 2.0277-9.4028 2.0277-4.7567 0-9.7923 3.7072-12.383 9.1159-3.0325 6.3323-12.963 12.291-24.26 14.557-16.095 3.2281-14.628-5.3992 2.2906-13.477 14.167-6.7636 16.875-10.822 11.29-16.916-4.2-4.583-6.1665-4.0007-10.875 3.22-6.9184 10.61-22.315 14.457-32.939 8.231-9.2818-5.4395-10.198 8.1541-2.8152 41.769 0.48319 2.2 1.775 6.475 2.8707 9.5 1.7464 4.8215 3.23 11.796 7.2326 34 0.54529 3.025 1.4013 12.045 1.9023 20.045 0.7788 12.436 1.4304 16.155 4.494 25.645l3.5831 11.1-1.8475 4.8546c-1.0161 2.6701-3.5043 7.1047-5.5292 9.8547-2.025 2.75-5.0989 6.9277-6.831 9.2839-1.7321 2.3561-7.6924 7.5368-13.245 11.513-13.601 9.7383-13.353 10.531 6.8815 21.999 9.184 5.2051 22.467 17.48 29.796 27.533 5.2818 7.2455 12.114 10.587 15.039 7.3552zm-202.15-6.2352c4.575-1.6788 11.362-4.4482 15.082-6.1543 5.7736-2.6479 7.1334-2.9334 9.2899-1.9509 2.8444 1.296 7.8766-0.24249 10.283-3.1437 3.29-3.97-2.7-4.91-10.84-1.7-6.3018 2.4839-12.679 2.6-15.246 0.27758-2.1579-1.9529-17.33 1.1238-20.734 4.2045-0.90087 0.81528-3.6055 2.5228-6.0103 3.7945-6.2527 3.3065-6.4876 5.0676-0.55714 4.1783 4.2185-0.6326 4.7245-0.4949 5.2258 1.4224 0.76346 2.9195 3.534 2.7288 13.504-0.92962zm100.6-2.0291c0.87131-4.5896-10.345-16.078-13.465-13.792-4.8213 3.5324-11.627 11.964-10.536 13.054 2.7182 2.7182 23.504 3.3578 24.002 0.73853zm143.61-247.4c0.60895-1.0909 2.3447-3.872 3.8572-6.1802 2.73-4.17 3.63-8.34 1.79-8.34-1.61 0-12.04 11.87-12.04 13.71 0 3.3844 4.6282 3.97 6.3928 0.80877zm-66.774-3.6712c-0.87729-4.3864-2.4976-6.191-4.2517-4.7352-2.99 2.48-0.97 7.89 2.95 7.89 1.6265 0 1.8272-0.48913 1.2941-3.1547zm66.73-16.464c11.76-12.45 15.24-19.39 9.71-19.39-7.3701 0-25.005 22.656-20.861 26.8 1.9917 1.9917 2.6859 1.5298 11.149-7.4192zm-53.35-4.91c0-3.1263-6.7492-5.179-9.1464-2.7818-2.92 2.92-1.57 4.3 4.21 4.3 3.75 0 4.94-0.37 4.94-1.52zm45.34-8.73c9.4648-8.4091 9.8943-8.9159 8.6286-10.182-2.28-2.28-19.97 11.46-19.97 15.51 0 3.4662 3.0494 2.0318 11.34-5.3339zm-13.132-2.453c5.385-5.2583 4.7149-8.1667-1.3978-6.0672-2.6648 0.91527-7.81 6.649-7.81 8.7034 0 2.5326 5.5384 0.94691 9.2078-2.6362zm-529.37-4.74c9.4521-17.524 20.717-33.5 39.428-55.92 10.182-12.2 13.224-16.477 12.345-17.356-1.2553-1.2553-24.512 23.011-41.4 43.198-9.1926 10.988-18.401 21.658-20.464 23.71-4.5839 4.5615-4.6097 3.9238 0.37736 9.3341 5.2674 5.7145 4.9853 5.8006 9.7135-2.9652zm-18.84-10.36c0-2.6975 1.6865-5.4745 15.558-25.617 5.3771-7.8082 6.3523-10.625 2.4582-7.1011-4.1262 3.7342-17.277 21.878-18.151 25.041-0.65016 2.3547-1.7576 3.5886-3.8871 4.3309-3.5514 1.238-3.7566 2.4833-0.75537 4.5854 3.2967 2.3091 4.7775 1.9249 4.7775-1.2396zm13.715-62.54c4.8318-2.9348 13.735-8.7265 19.785-12.87 6.05-4.1438 12.575-8.3158 14.5-9.271 1.925-0.95518 5.1072-3.376 7.0716-5.3797 4.8181-4.9143 11.9-9.0207 20.928-12.135 4.125-1.4229 12.9-5.5528 19.5-9.1776 20.492-11.254 41.393-21.332 56.5-27.242 7.975-3.12 20.8-8.3519 28.5-11.626 14.635-6.2236 23.268-9.4275 30-11.134 8.1123-2.0563 10.106-2.6753 15-4.6562 11.325-4.5843 57.189-17.577 71.218-20.176 5.93-1.0984 13.257-2.4565 16.282-3.0182 10.664-1.9798 25.654-4.0643 39.5-5.4925 7.7-0.79428 17.6-1.9746 22-2.623s10.025-1.1132 12.5-1.033c2.475 0.0803 7.5641-0.59074 11.309-1.4911 5.7237-1.3761 7.8757-1.451 13.5-0.46983 3.68 0.64197 17.041 1.806 29.691 2.5867 12.65 0.78072 25.25 1.8728 28 2.4268 15.423 3.1073 21.373 4.1184 24.233 4.1184 4.6728 0 21.98 4.5743 29.9 7.9027 15.8 6.6396 34.168 16.124 38.367 19.811 2.475 2.1729 6.8484 5.5202 9.7187 7.4383 7.0936 4.7404 19.878 18.7 25.606 27.958 7.309 11.815 8.6756 12.645 8.6756 5.2698 0-15.285-34.61-55.086-55.486-63.809-2.1925-0.91609-4.8925-2.4866-6-3.49-7.17-6.5-32.86-17.43-48.52-20.64-17.557-3.6055-18.59-3.9341-19.455-6.1902-1.4509-3.7809 17.643-3.8395 22.178-0.0681 0.86825 0.72196 4.9983 1.5808 9.178 1.9084 7.6056 0.59628 13.208 2.5026 35.876 12.207 18.365 7.8623 38.339 21.053 51.691 34.138 9.4379 9.2486 10.547 9.5379 6.8649 1.7901-3.8714-8.1455-11.315-15.422-25.182-24.616-6.96-4.62-13.77-9.61-15.15-11.09-14.357-15.507-69.439-38.728-89.581-37.765-11.514 0.55053-15.997-1.2334-13.086-5.2072 4.348-5.9347 39.047-1.3827 57.483 7.5409 4.6333 2.2427 10.058 4.6715 12.054 5.3975 5.9906 2.1784 20.262 9.0364 28.705 13.794 33.052 18.624 34.156 18.996 27.441 9.2357-7.0923-10.308-16.817-16.95-46.516-31.767-38.388-19.153-42.879-20.788-63.73-23.194-16.682-1.9254-20.466-4.0936-14.251-8.1658 3.4697-2.2734 21.286-0.31909 34.481 3.7823 5.225 1.6241 13.147 4.0376 17.606 5.3634 10.382 3.0875 34.523 13.471 49.777 21.41 11.422 5.9445 14.532 6.5967 13.051 2.7364-0.3476-0.90584-2.2726-2.6609-4.2778-3.9002s-6.5731-4.7406-10.151-7.7807c-7.7055-6.5476-12.388-9.6634-21.073-14.022-3.5377-1.7754-8.4571-4.6999-10.932-6.4989-2.475-1.799-9-5.404-14.5-8.0112-5.5-2.6071-15.028-7.1223-21.173-10.034-11.634-5.5115-22.005-8.7992-31.25-9.9064-7.0036-0.83872-9.282-2.0826-8.8877-4.8523 0.85393-5.9983 24.375-2.7701 42.311 5.807 3.85 1.8411 12.85 5.8987 20 9.0168 14.952 6.5207 25.94 12.524 43.255 23.632 13.622 8.7393 13.245 8.5671 13.245 6.0527 0-2.1251-6.7821-8.1274-20-17.7-5.225-3.7841-10.978-8.1426-12.785-9.6854-1.81-1.54-3.73-2.8-4.26-2.8-0.53433 0-5.5927-2.6236-11.241-5.8301-5.6482-3.2066-14.533-7.9214-19.744-10.477-5.2109-2.556-13.074-6.727-17.474-9.2689-9.6287-5.5626-19.55-8.9689-29-9.9566-15.954-1.6674-16.744-9.0655-1-9.3618 10.248-0.19287 64.71 24.241 93.604 41.994 19.806 12.169 16.351 3.3026-4.0211-10.32-5.8206-3.8923-12.44-8.6973-14.71-10.678-5.9165-5.1627-28.772-18.506-40.695-23.758-15.362-6.767-17.335-7.3816-28.523-8.8815-14.844-1.9902-20.829-5.5346-17.045-10.095 0.91151-1.0983 2.4343-1.396 5.3326-1.0427 12.91 1.574 19.502 2.7132 23.057 3.9844 11.043 3.9495 48.111 20.276 54.131 23.842 3.7782 2.2382 9.9215 5.8803 13.652 8.0936 17.42 10.34-2.92-10.52-24.28-24.9-13.47-9.07-64.19-33.34-69.66-33.34-10.205 0-10.562-7.4754-0.4142-8.6772 7.0296-0.83256 12.923 1.3061 53.562 19.438 7.6817 3.4274 23.477 12.45 32.196 18.391 2.2991 1.5665 4.4366 2.8482 4.75 2.8482 3.6165 0-8.1977-12.226-15.655-16.201-3.225-1.7189-7.7562-4.7626-10.069-6.7636-3.7833-3.2729-10.06-7.8242-22.398-16.24-2.3058-1.5728-5.6808-3.3473-7.5-3.9434-1.8192-0.59607-7.8077-3.2687-13.308-5.9391-5.5-2.6705-12.25-5.3344-15-5.9199-15.104-3.2157-23.113-9.2892-15.877-12.04 8.7285-3.3186 56.576 15.273 80.177 31.153 4.4314 2.9818 6.1999 3.5526 6.1999 2.0012 0-1.4091-11.058-11.212-17.575-15.579-3.259-2.1843-7.694-5.4468-9.8555-7.25-2.16-1.8-4.35-3.28-4.86-3.28-0.51212 0-4.5936-2.1714-9.07-4.8253-14.178-8.4054-30.776-16.018-39.588-18.156-12.423-3.014-16.936-7.292-10.694-10.136 7.1511-3.2582 63.985 20.774 80.834 34.18 2.0302 1.6154 4.3928 2.9372 5.25 2.9372 7.714 0-12.675-16.87-31.999-26.476-8.2817-4.1169-16.13-8.6271-17.441-10.023-1.311-1.3955-4.5564-3.1825-7.2119-3.9711-2.6556-0.78861-6.7576-2.8194-9.1156-4.5128-4.1513-2.9812-16.988-8.2237-25.174-10.281-7.3976-1.859-9.6044-2.956-9.2848-4.6156 0.44603-2.316 3.368-2.5471 9.7064-0.7676 3.0681 0.86138 9.6284 2.3128 14.578 3.2254 15.209 2.8039 30.485 8.9483 44.226 17.789 9.5065 6.1161 18.274 9.8905 18.274 7.8669 0-1.5169-11.612-12.327-16.646-15.495-2.83-1.7816-7.6889-4.9543-10.798-7.0504-3.1086-2.0961-7.3181-4.4269-9.3545-5.1795-2.03-0.751-8.42-3.461-14.2-6.021-5.775-2.5599-14.657-5.9029-19.737-7.4289-13.609-4.0879-21.038-9.725-15.241-11.565 3.1624-1.0037 27.055 5.4281 34.478 9.2812 1.65 0.85654 5.7274 2.133 9.0609 2.8366 5.5592 1.1734 19.92 7.4209 28.437 12.371 4.0942 2.3796 5.8431 0.61954 1.9008-1.913-1.32-0.848-4.88-3.828-7.9-6.622-19.31-17.839-37.9-27.192-67.31-33.877-2.3415-0.53212-2.7606-1.0891-2.5-3.3226 0.63111-5.4094 11.563-5.3816 24.467 0.06226 18.342 7.7383 27.399 12.262 34.477 17.222 14.85 10.406 15.016 7.6392 0.37989-6.3345-14.45-13.795-33.56-23.106-57.99-28.255-4.93-1.04-11.11-2.811-13.72-3.934-5.52-2.374-23.36-5.829-36.3-7.03-4.95-0.46-12.38-1.324-16.5-1.92-4.125-0.59604-16.5-1.0181-27.5-0.93798-11 0.08015-29.225 0.04592-40.5-0.07607-18.035-0.19513-21.402 0.02567-28 1.8362-4.125 1.1319-12.225 2.5029-18 3.0466-5.775 0.54373-15.45 2.3462-21.5 4.0055s-12.638 3.028-14.641 3.0416c-2.0024 0.01357-5.6024 0.91479-8 2.0027s-5.388 1.9879-6.6455 2c-1.2575 0.01208-9.3575 2.4337-18 5.3815-8.64 2.948-18.41 5.679-21.71 6.07-4.0706 0.48162-9.698 2.4333-17.5 6.0694-6.325 2.9477-14.813 6.2474-18.862 7.3327-5.8884 1.5782-8.2035 2.7988-11.564 6.0964-2.3845 2.3402-6.552 5.0128-9.6376 6.1806-2.99 1.1316-7.6864 3.7666-10.436 5.8555-2.75 2.0889-8.375 5.6844-12.5 7.9901-4.125 2.3056-8.85 5.4334-10.5 6.9505s-7.275 5.9134-12.5 9.7695c-9.3081 6.8694-26.446 22.214-25.674 22.986 0.7122 0.7122 12.042-6.1842 20.613-12.547 4.6415-3.4457 12.1-8.5022 16.575-11.237 4.4747-2.7344 9.5682-6.4903 11.319-8.3463 1.7507-1.8561 4.6356-3.6937 6.4109-4.0836 3.2252-0.70838 8.6341-3.1852 22.756-10.42 4.125-2.1134 12-5.6653 17.5-7.8933 5.5-2.2279 11.783-4.9693 13.961-6.0918 2.1788-1.1226 5.3288-2.0589 7-2.0807 1.6712-0.02182 5.5136-1.3717 8.5386-2.9998s6.7807-2.9602 8.3461-2.9603c1.5654-0.000126 5.1654-0.61739 8-1.3717s7.6289-1.9287 10.654-2.6098c3.025-0.6811 11.8-3.2798 19.5-5.7749s16.7-4.8907 20-5.3236c3.3-0.43289 10.725-1.9208 16.5-3.3064 14.18-3.4022 22-3.4128 22-0.02983 0 1.9462-3.8243 4.1585-8.5 4.917-5.4462 0.88351-40.235 11.031-49.5 14.438-4.125 1.5171-12.675 4.2321-19 6.0335s-14.425 4.5349-18 6.0745-8.75 3.4593-11.5 4.2661c-4.2898 1.2585-10.767 4.289-34 15.908-2.2 1.1002-6.25 3.6579-9 5.6837s-9.0288 5.599-13.953 7.9404c-4.9241 2.3414-13.249 7.3258-18.5 11.076-5.2509 3.7506-11.572 8.0739-14.047 9.6073-7.6416 4.7346-19.987 14.483-24.803 19.586-2.5243 2.6746-8.4387 7.0983-13.143 9.8306-7.39 4.3-18.06 13.39-18.06 15.4 0 1.5506 2.9807 0.42476 7.0859-2.6763 23.007-17.38 37.38-26.851 55.165-36.353 6.4629-3.4528 16.129-9.0363 21.481-12.408 5.3516-3.3716 10.774-6.5269 12.049-7.0118 1.2755-0.48494 2.7842-2.2159 3.3526-3.8466 1.1005-3.157 1.8232-3.5285 8.8664-4.5586 2.475-0.36197 10.35-3.3784 17.5-6.7032 14.91-6.93 19.78-8.782 23.12-8.782 1.3051 0 6.311-1.7552 11.124-3.9005 4.82-2.146 10.34-4.217 12.26-4.604 5.2803-1.0605 39.929-12.912 44.5-15.221 11.001-5.5569 46.392-13.146 44.114-9.4589-1.671 2.7037-14.41 8.4429-31.114 14.017-9.9 3.3038-20.925 7.3371-24.5 8.9628s-10.684 3.93-15.798 5.1207c-9.2897 2.163-26.239 8.9353-29.347 11.726-0.90461 0.81234-6.9796 3.4986-13.5 5.9694s-14.555 5.9557-17.855 7.744c-3.3 1.7884-8.025 4.0109-10.5 4.939-2.6317 0.98683-5.6693 3.1565-7.3162 5.2258-1.5489 1.9461-4.9239 4.5846-7.5 5.8633-17.711 8.7915-78.489 49.672-90.336 60.761-2.5586 2.3951-7.393 6.741-10.743 9.6576-15.919 13.859-9.4567 10.74 15.058-7.267 17.476-12.837 28.997-20.672 40.312-27.414 17.163-10.226 40.877-23.059 50.032-27.074 5.0547-2.2168 13.774-6.2846 19.377-9.0394 5.6-2.76 10.43-5.01 10.73-5.01 0.30392 0 4.2255-1.6294 8.7146-3.6208 51.07-22.656 103.05-38.177 104.45-31.187 0.40208 2.0148-3.3882 4.1757-10.986 6.2633-7.9636 2.1881-46.604 16.912-53.443 20.364-3.291 1.6613-8.511 3.6805-11.6 4.4872-3.089 0.80665-8.2357 2.9201-11.437 4.6965-16.069 8.9166-22.49 12.164-27.422 13.867-2.9693 1.0254-8.4735 3.4992-12.232 5.4973-3.7582 1.9981-7.6728 3.633-8.6991 3.633s-3.09 1.6046-4.5859 3.5658-4.4328 4.4398-6.5265 5.5079c-4.8724 2.4857-37.349 23.871-41.516 27.338-1.7384 1.4462-5.1134 3.7346-7.5 5.0853s-6.5893 4.2618-9.3393 6.469-7.925 5.97-11.5 8.3616c-3.575 2.3917-7.175 5.167-8 6.1674s-5.325 5.0067-10 8.903-11.046 9.3382-14.158 12.093c-3.112 2.755-7.7245 6.7279-10.25 8.8288s-4.5918 4.4863-4.5918 5.3009c0 1.6242 2.1913 0.16381 14.5-9.6632 3.85-3.0738 14.424-10.509 23.498-16.523 9.0738-6.0139 17.849-12.111 19.5-13.55 1.6512-1.4385 4.8972-3.5762 7.2132-4.7504s9.066-5.131 15-8.7928 15.491-9.3054 21.237-12.541c5.7464-3.236 10.921-6.2635 11.5-6.7278 0.57864-0.46431 6.0021-3.43 12.052-6.5904 6.05-3.1604 13.925-7.4436 17.5-9.5181s11-5.7159 16.5-8.092c5.5-2.376 13.098-6.0615 16.885-8.19s9.1864-4.5532 11.999-5.3884c2.8123-0.83517 8.9983-3.2678 13.747-5.4059 4.7484-2.1381 9.024-3.8875 9.5013-3.8876 0.47735-0.00009 11.893-3.4029 25.368-7.5618 23.036-7.1098 29.444-8.5176 31.89-7.006 3.0257 1.87-4.9764 7.1269-15.39 10.11-3.3 0.9454-9.9078 3.6748-14.684 6.0652-12.819 6.4159-30.361 13.293-36.271 14.22-3.6953 0.57949-7.0292 2.111-11.614 5.3354-3.5371 2.4874-13.509 7.9403-22.16 12.118-8.6511 4.1772-17.876 9.0726-20.5 10.879-2.6239 1.8061-7.4707 4.6795-10.771 6.3853-9.8234 5.078-20.457 11.363-29.627 17.513-4.7451 3.1817-10.949 6.9613-13.786 8.399-2.8372 1.4377-7.0002 4.2857-9.2513 6.329-2.251 2.0432-8.4839 6.64-13.851 10.215-20.094 13.385-27.947 19.061-28.942 20.92-0.56332 1.0526-4.2908 4.0706-8.2834 6.7068-7.0868 4.6792-18.261 13.462-20.259 15.924-0.55 0.67752-2.8 2.3646-5 3.7492-5.1257 3.2257-13.5 11.024-13.5 12.572 0 2.2625 3.1509 2.4058 5.8281 0.26501 1.4696-1.1751 5.165-3.8894 8.2122-6.0318s6.184-4.6709 6.9708-5.6189c0.7868-0.94803 4.8187-4.0016 8.9597-6.7857s14.954-10.551 24.029-17.26c9.075-6.7091 22.35-15.478 29.5-19.485 7.15-4.0078 17.275-10.085 22.5-13.504 47.221-30.904 134.92-66.278 164.69-66.425 8.1911-0.0405 8.1529 3.8571-0.0596 6.0868-8.2002 2.2263-29.669 9.8726-34.348 12.233-2.6309 1.3274-8.3835 3.3877-12.783 4.5784-8.3208 2.2517-20.055 7.0869-29.5 12.156-10.571 5.6735-35.531 17.684-39.17 18.848-2.0185 0.64577-4.2627 1.8882-4.987 2.761-0.72436 0.8728-5.8228 4.5226-11.33 8.1106-5.5071 3.588-11.753 7.6884-13.879 9.1119-2.1263 1.4235-8.269 5.0632-13.65 8.0882-10.488 5.8957-20.12 12.326-34.484 23.022-4.95 3.686-10.471 7.4552-12.27 8.376-1.7983 0.92079-4.5825 3.4864-6.187 5.7013s-4.6506 5.2828-6.7692 6.8175-4.627 3.9733-5.5744 5.4191c-0.94735 1.4458-3.4546 3.4657-5.5717 4.4885-10.43 5.0392-44.094 33.843-41.458 35.472 0.52183 0.3225 7.222-4.1396 14.889-9.9157 7.6673-5.7762 21.141-15.079 29.941-20.674 8.8-5.5943 20.725-13.352 26.5-17.239 67.599-45.503 181.01-93.689 195.52-83.076 2.65 1.9378 0.58053 4.2653-4.3094 4.8468-5.2475 0.62396-24.954 6.5952-29.633 8.9791-2.1567 1.0988-6.2067 2.801-9 3.7826-15.712 5.5216-52.469 23.991-80.079 40.237-29.892 17.589-51.352 30.924-62.382 38.763-2.7088 1.925-8.3642 5.68-12.568 8.3445-8.84 5.6034-23.72 16.577-38.106 28.1-5.5308 4.4305-14.664 11.567-20.297 15.858-9.0056 6.8617-14.131 12.318-14.143 15.054-0.008 1.9394 5.611-1.7563 25.232-16.594 5.9055-4.4659 31.303-21.612 42.264-28.532 30.357-19.167 75.419-41.522 113.5-56.307 10.175-3.9506 21.65-8.4148 25.5-9.9206 12.894-5.0428 39.227-11.205 52.664-12.324 14.428-1.2016 16.457 5.5202 2.224 7.369-15.583 2.0242-32.297 6.7171-47.045 13.209-4.3136 1.8989-11.394 4.9805-15.733 6.848-9.9194 4.2688-38.339 18.485-54.11 27.067-26.426 14.38-39.251 21.655-44.35 25.155-2.9428 2.0201-5.9982 3.6729-6.7898 3.6729-2.5085 0-9.7126 4.1249-13.905 7.9616-2.2249 2.0362-8.5249 6.3335-14 9.5496s-11.305 7.0905-12.955 8.6097c-1.65 1.5193-5.9932 4.9261-9.6516 7.5707-12.091 8.7404-21.32 15.98-23.348 18.315-1.1 1.2664-5.5096 4.9205-9.7992 8.1201-8.65 6.45-13.68 11.15-13.68 12.78 0 1.8696 1.2026 1.2196 14.252-7.7034 59.746-40.854 64.661-44.097 75.254-49.637 4.9471-2.5877 9.8947-5.5295 10.995-6.5373 1.1-1.0078 5.7955-3.727 10.434-6.0426 4.639-2.3157 10.039-5.2224 12-6.4594 30.39-19.169 110.56-50.379 120.94-47.083 0.91955 0.29186 3.2366 0.0485 5.149-0.54074 7.4676-2.301 14.365-3.7077 15.688-3.1998 1.7244 0.66172 1.2984 3.2881-0.71121 4.3848-4.9 2.68-16.24 6.9-18.51 6.9-3.4578 0-12.497 2.5709-19.486 5.5425-3.025 1.2861-10.125 4.1666-15.779 6.4011-5.6533 2.2346-13.978 5.9237-18.5 8.1981-4.5217 2.2744-10.574 4.9454-13.45 5.9356-10.517 3.6211-60.222 32.292-75.751 43.694-2.4502 1.7991-8.1821 5.4774-12.737 8.174-4.5553 2.6966-9.6324 5.999-11.282 7.3386-1.65 1.3397-4.4432 3.1754-6.2071 4.0795-10.525 5.3945-46.696 33.925-58.729 46.324-2.2352 2.3032-7.2141 6.7322-11.064 9.8422-7.8255 6.3215-9.2368 8.1334-7.6056 9.7646 0.80224 0.80224 1.9856 0.27345 4.3536-1.9455 1.7886-1.6759 7.527-6.2371 12.752-10.136 5.225-3.8988 13.1-10.058 17.5-13.688 4.4-3.6293 13.625-10.501 20.5-15.271 6.875-4.7698 14.447-10.153 16.827-11.963 2.3796-1.81 4.8232-3.2909 5.4303-3.2909 0.60703 0 3.8351-1.7267 7.1734-3.8371 23.154-14.638 30.003-18.425 63.917-35.345 60.585-30.227 89.255-41.694 104.65-41.855 3.575-0.0375 10.765-0.8942 15.978-1.9038 9.74-1.88 14.03-1.48 14.03 1.3 0 3.4275-11.221 6.7539-29 8.5968-6.0185 0.62387-10.544 1.8092-15.5 4.0602-16.768 7.6155-27.764 13.097-33.037 16.471-3.1143 1.9922-8.2051 4.5731-11.313 5.7352-3.1077 1.1622-7.8076 3.4398-10.444 5.0614-2.6366 1.6216-7.1117 3.8291-9.9447 4.9056s-7.2008 3.6455-9.7062 5.709-9.5053 6.2225-15.555 9.2422c-15.1 7.537-23.403 12.491-52 31.026-18.487 11.983-25.436 16.932-31.442 22.396-3.0569 2.7811-10.733 9.0804-17.058 13.998-28.137 21.878-54 44.906-54 48.08 0 2.3849 1.8932 1.5045 8.354-3.8849 32.929-27.468 74.934-57.415 95.546-68.119 1.9799-1.0282 7.4248-4.2506 12.1-7.1609 4.675-2.9104 10.075-5.6126 12-6.005 1.925-0.39238 4.7176-1.5739 6.2058-2.6257 1.4882-1.0517 4.1882-2.4179 6-3.0359 4.1012-1.3989 13.025-7.0031 18.224-11.446 2.1615-1.8467 4.438-3.3576 5.0588-3.3576 0.62085 0 3.7201-1.5604 6.8872-3.4675 6.5239-3.9285 32.064-15.697 38.124-17.567 2.2-0.67889 8.3255-2.9456 13.612-5.0371 15.624-6.1809 48.897-13.712 55.286-12.514 8.8364 1.6577 4.1558 7.2911-7.1145 8.5627-17.951 2.0254-48.67 12.262-71.284 23.755-12.117 6.158-20.195 10.745-53 30.095-12.271 7.2377-31.727 20.207-38.327 25.548-2.8449 2.3022-8.3226 6.3461-12.173 8.9863-14.498 9.9426-17.104 11.874-21 15.565-2.2 2.0844-4.747 4.0489-5.6601 4.3657-3.3187 1.1513-21.655 16.775-34.724 29.587-7.37 7.21-13.73 13.11-14.15 13.11-2.7395 0-15.18 14.127-13.724 15.584 0.86735 0.86734 12.801-8.9317 14.783-12.139 1.2981-2.1003 3.8382-4.1798 6.5958-5.3996 2.4666-1.0911 6.7365-3.9102 9.4887-6.2648 2.7521-2.3545 7.349-6.3059 10.215-8.7809 2.8662-2.475 10.264-7.824 16.439-11.887 6.18-4.06 11.23-7.77 11.23-8.24 0-0.46939 2.8125-2.218 6.25-3.8857 3.4375-1.6678 9.0385-4.7097 12.447-6.76 3.4081-2.0502 8.8081-5.2696 12-7.1542s8.2784-5.0855 11.303-7.1131c3.025-2.0277 8.4096-5.1537 11.966-6.9468 3.5561-1.7931 11.881-6.5213 18.5-10.507 31.74-19.11 70.1-35.5 83.1-35.5 5.6563 0 26.284-5.3429 33.203-8.6 2.9025-1.3664 5.7007-2.2226 6.2183-1.9027 0.5176 0.31989 3.3178-0.0217 6.2228-0.759 6.3363-1.6083 8.7817-1.243 8.7817 1.312 0 3.417-12.018 7.8414-43.5 16.015-3.85 0.99957-10.57 2.7464-14.933 3.882-4.3632 1.1355-10.663 3.3562-14 4.9348-3.3368 1.5786-6.9136 3.1596-7.9484 3.5132-1.0349 0.35361-5.9849 3.0529-11 5.9984s-13.98 7.912-19.923 11.037c-5.9423 3.1247-15.392 8.5407-21 12.036-11.336 7.0647-16.44 10.23-28.196 17.484-4.4 2.715-10.475 6.7028-13.5 8.8618s-8.65 5.6998-12.5 7.8684-9.1974 5.6223-11.883 7.6748c-2.6858 2.0525-6.2858 4.4488-8 5.325-1.7143 0.8762-4.784 3.0873-6.8218 4.9135-2.0377 1.8262-5.5855 4.2798-7.884 5.4524s-7.1563 4.9177-10.795 8.3225c-3.6388 3.4048-9.4118 8.1433-12.829 10.53-14.836 10.363-10.9 11.973 4.5282 1.852 43.8-28.74 61.62-39.02 127.67-73.6 39.59-20.73 101.64-41.5 106.5-35.65 1.7294 2.0837-0.3814 4.5-3.931 4.5-2.9718 0-17.591 5.0025-23.069 7.8938-1.925 1.0161-6.7793 2.8237-10.787 4.0169-4.008 1.1932-14.716 5.7515-23.796 10.129-9.08 4.38-16.79 7.96-17.13 7.96-0.34109 0-3.8079 1.9458-7.7041 4.324-7.6174 4.6496-14.519 8.6622-32.584 18.944-6.325 3.6-13.975 8.3248-17 10.5-3.025 2.1748-7.1948 4.504-9.2662 5.1761-2.0714 0.67207-6.3464 3.432-9.5 6.1331s-8.757 6.5058-12.452 8.455c-3.695 1.9491-7.97 4.5792-9.5 5.8446s-7.5068 5.2642-13.282 8.8862c-5.775 3.622-12.3 8.3924-14.5 10.601-2.2 2.2084-6.4552 5.4356-9.4561 7.1715-6.41 3.7-17.04 11.88-17.04 13.11 0 1.6456 2.0057 0.8063 10.715-4.4836zm-68.85-88.91c0.55519-2.8875 2.3979-17.4 4.0949-32.25s3.5091-29.925 4.0269-33.5c0.51781-3.575 1.6575-12.575 2.5327-20 0.87516-7.425 2.8716-22.725 4.4365-34s3.3606-27.025 3.9904-35c1.1547-14.622 2.9793-29.944 5.5374-46.5 0.76483-4.95 1.6379-12.492 1.9402-16.76 0.3023-4.2679 1.0563-9.7721 1.6756-12.232 2.3784-9.4454-0.9143-9.4349-6.7545 0.0214-14.834 24.018-22.866 49.395-24.364 76.97-0.44805 8.25-1.3165 18.857-1.9299 23.571-1.7263 13.267-2.6293 40.952-1.8407 56.429 0.39237 7.7 0.94412 20.975 1.2261 29.5 1.5328 46.337 2.8655 57.078 5.4281 43.75zm93.438 890.61c-1.03-2.7 8.48-7.4 14.93-7.4 1.0343 0 3.9902-0.6269 6.5685-1.3932 27.376-8.1358 80.652-4.0757 76.841 5.856-0.82368 2.1464-3.175 1.9326-11.728-1.0668-6.5696-2.3039-9.0958-2.6208-21.925-2.75-17.481-0.176-37.145 2.1494-52.5 6.2085-9.682 2.5594-11.377 2.6291-12.194 0.5009zm1.0739-19.808c-1.2776-3.3294 2.5236-5.3974 22.12-12.034 7.7-2.6079 14.9-5.2357 16-5.8396s4.25-1.3401 7-1.6359c7.5581-0.8132 7.5381-4.0538-0.0651-10.549-7.4412-6.3573-12.742-7.3931-19.568-3.8239-6.2156 3.2501-13.01 4.4484-10.934 1.9284 1.6842-2.044 8.3343-5.5931 10.48-5.5931 3.1774 0 6.5869-2.3372 6.5869-4.5155 0-4.7221-13.448-14.804-15.443-11.577-0.89535 1.4487-20.259 10.936-24.837 12.168-2.2913 0.617-5.3501 2.1182-6.7974 3.336-6.251 5.2598-21.923 12.172-21.923 9.669 0-1.608 13.303-10.657 18.5-12.584 2.75-1.0196 6.2192-2.691 7.7093-3.7141 4.6338-3.1816 21.806-10.782 24.361-10.782 4.0759 0 3.0438-3.8573-2.6087-9.75-5.7856-6.0313-7.2907-6.3186-15.087-2.8791-2.9559 1.3039-6.7244 2.6975-8.3744 3.0968-3.2771 0.793-8.8766 3.8481-18.388 10.032-26.624 17.312-32.379 20.066-30.669 14.679 1.0351-3.2613 31.034-21.179 35.46-21.179 0.67683 0 2.6631-1.0763 4.4139-2.3918s6.8958-4.2455 11.433-6.5112c9.3586-4.6728 9.9654-5.9628 5.1313-10.907-3.7561-3.8418-4.4619-3.8882-10.477-0.6898-2.586 1.375-5.3202 2.5-6.0759 2.5-0.75572 0-4.8512 1.9873-9.1011 4.4163s-11.82 6.5915-16.823 9.25c-13.963 7.4201-28.279 17.192-29.967 20.455-1.5494 2.9962-6.1631 3.9714-9.3226 1.9705-4.155-2.6314 3.228-8.5404 25.752-20.611 3.0982-1.6602 8.8254-4.9324 12.727-7.2714 3.9018-2.339 11.327-6.0049 16.5-8.1465 19.289-7.9848 20.545-9.1714 15.156-14.313-3.7732-3.5996-7.621-4.8656-12.568-4.1349-7.067 1.0438-34.686 13.779-40.651 18.745-0.84224 0.7011-4.9063 3.2472-9.0313 5.6581-4.125 2.4108-8.5732 5.1929-9.8849 6.1824-1.3117 0.9894-2.9992 1.799-3.75 1.799-9.6682 0 32.655-27.675 55.253-36.13 7.821-2.9262 7.7348-3.7794-1.2602-12.464-19.212-18.55-22.541-18.944-43.079-5.099-2.8716 1.9357-6.9118 4.0775-8.9783 4.7595s-6.7795 3.1772-10.473 5.5449c-11.628 7.4534-29.697 15.92-31.062 14.554-1.7342-1.7342 1.0916-4.0621 11.735-9.6674 4.95-2.6069 9.45-5.0883 10-5.5142 0.55-0.426 3.8962-1.9874 7.436-3.4699 3.5398-1.4824 7.8148-3.7092 9.5-4.9485s5.764-3.2809 9.064-4.537c21.333-8.1202 25.577-13.173 14.836-17.661-3.6711-1.5339-20.489 2.5047-27.757 6.6654-1.6932 0.9693-4.1217 2.0737-5.3965 2.4541-2.6052 0.7773-20.818 11.98-35.17 21.632-6.9607 4.6816-9.754 7.1804-10.487 9.3813-1.9006 5.7066-8.402 6.5726-11.04 1.4706-1.8451-3.5679-1.4222-4.5852 2.2767-5.4769 1.5062-0.3632 6.1135-3.0743 10.239-6.0248 4.125-2.9506 11.1-7.479 15.5-10.063 4.4-2.5842 10.7-6.3865 14-8.4496s7.125-4.0812 8.5-4.4848 3.6945-1.5748 5.1544-2.6026 2.9542-1.8688 3.3206-1.8688c2.0889 0 21.561-10.401 21.256-11.354-0.45407-1.4222-16.136-14.158-20.263-16.457-1.6675-0.9287-9.2303-6.6385-16.806-12.688-7.576-6.05-16.787-13.052-20.468-15.56-7.5459-5.1406-9.1471-8.4116-4.668-9.5358 6.4945-1.63 28.649 9.9016 54.974 28.614 2.2 1.5638 8.05 5.6635 13 9.1104s15.004 11.466 22.343 17.819c7.3388 6.3536 16.789 14.455 21 18.004 20.112 16.947 47.56 46.736 67.109 72.83 5.9957 8.0031 9.1923 11.432 11 11.8 9.5337 1.9402 11.397 3.5286 9.1232 7.7772-1.6071 3.0028 0.78867 7.6856 5.8442 11.423 1.676 1.2391 3.788 3.7075 4.6933 5.4852 0.9053 1.7778 3.8694 5.6014 6.587 8.497 10.041 10.699 3.2522 12.917-7.5403 2.4636-8.5089-8.2413-14.014-10.006-19.936-6.3913-1.773 1.0821-6.2338 2.8884-9.9129 4.014-3.6791 1.1255-8.4041 2.9146-10.5 3.9757s-5.3494 2.2616-7.2302 2.6679c-1.8807 0.4063-6.4686 2.0363-10.195 3.6221-7.8644 3.3466-7.776 3.3317-8.5053 1.4312zm389.87-60.21c-3.4668-1.3989-0.67211-5.3969 15.265-21.838 9.0636-9.35 16.481-17.426 16.482-17.946 0.002-0.5205 1.2076-2.6847 2.68-4.8094 3.8183-5.5097 9.4933-19.152 10.849-26.08 0.66158-3.3807 5.0266-8.0582 6.6079-7.081 4.6071 2.8474-10.511 37.045-17.576 39.756-0.789 0.3027-4.3991 5.0753-8.0224 10.606-3.6233 5.5304-6.9622 10.055-7.4198 10.055-0.45758 0-3.4002 3.2625-6.5392 7.25s-6.3486 8.0375-7.1324 9c-1.4222 1.7464-2.8313 2.0414-5.1948 1.0877zm-507.82-11.3c-2.2551-1.0242-5.026-3.3553-6.2144-5.228l-2.1447-3.3796 3.9423-0.6941c2.1683-0.3817 7.2148-2.6773 11.214-5.1013 7.7534-4.6989 25.75-13.487 37.272-18.2 3.85-1.575 7.4275-3.2327 7.95-3.6839s2.21-0.8203 3.75-0.8203c4.2184 0 3.4788 2.6136-1.45 5.124-2.3375 1.1905-5.6 3.1565-7.25 4.3689-1.65 1.2123-6.375 3.4215-10.5 4.9092-18.487 6.6677-30.473 15.036-29.708 20.742 0.61012 4.5488-0.48259 4.8615-6.8622 1.9639zm176.63-34.536c-4.0318-4.8579 20.488-24.949 28.568-23.408 4.9853 0.9508 2.6736 4.5785-5.6906 8.93-5.015 2.6091-10.477 6.5101-14.115 10.081-6.3985 6.2803-6.964 6.5641-8.7624 4.3971zm-239.42-2.6444c-3.2731-2.5746-3.3154-3.5398-0.18952-4.3243 1.3449-0.3376 4.5904-2.4703 7.2121-4.7394 6.4141-5.5513 21.08-14.942 25.061-16.047 1.7704-0.4914 4.4704-1.907 6-3.1458 2.8411-2.301 24.562-13.259 31.781-16.034 8.1392-3.128 15.419-4.1469 17.163-2.4023 1.9819 1.9819 0.94865 3.7652-2.1816 3.7652-1.3201 0-6.806 1.6088-12.191 3.5751-5.3849 1.9664-12.491 4.5139-15.791 5.6612s-7.4422 3.1765-9.2049 4.5092-5.3393 3.0655-7.9481 3.8506-5.6665 2.2419-6.7951 3.2374c-1.1285 0.9954-6.6089 5.0208-12.178 8.9454-10.607 7.4742-11.758 8.8422-10.764 12.801 0.8245 3.2851-5.9405 3.521-9.9744 0.3479zm-18.64-8.1c0-1.1423 1.303-3.2798 2.8956-4.75 6.6059-6.1 12.815-11 16.104-12.7 1.925-0.9866 5.975-3.4557 9-5.487 9.5382-6.4049 22.582-13.019 25.601-12.982l2.8986 0.036-2.7826 2.2776c-1.5304 1.2527-6.0304 3.9279-10 5.9449-12.958 6.584-27.307 16.443-35.595 24.456-5.799 5.7-8.122 6.6-8.122 3.2zm60.089-38.441c4.1505-4.1505 23.393-9.3127 26.432-7.0907 3.465 2.5337 0.26578 4.6082-7.1065 4.6082-3.9825 0-8.2275 0.7438-11.415 2-6.3801 2.5148-10.175 2.7462-7.9111 0.4825zm-20.852-6.694c0.39476-1.1843 6.0574-4.7068 14.454-8.9915 3.4994-1.7856 4.451-1.9235 5.7623-0.8352 2.1772 1.8069 0.43983 3.6533-4.2396 4.5053-2.0429 0.372-6.0701 1.9941-8.9492 3.6046-5.623 3.1454-7.6709 3.6457-7.028 1.7168z"/>
</svg>